<?xml version="1.0" encoding="utf-8" standalone="no"?>
<!DOCTYPE svg PUBLIC "-//W3C//DTD SVG 1.1//EN"
  "http://www.w3.org/Graphics/SVG/1.1/DTD/svg11.dtd">
<!-- Created with matplotlib (https://matplotlib.org/) -->
<svg height="288pt" version="1.1" viewBox="0 0 432 288" width="432pt" xmlns="http://www.w3.org/2000/svg" xmlns:xlink="http://www.w3.org/1999/xlink">
 <metadata>
  <rdf:RDF xmlns:cc="http://creativecommons.org/ns#" xmlns:dc="http://purl.org/dc/elements/1.1/" xmlns:rdf="http://www.w3.org/1999/02/22-rdf-syntax-ns#">
   <cc:Work>
    <dc:type rdf:resource="http://purl.org/dc/dcmitype/StillImage"/>
    <dc:date>2021-03-25T21:58:07.912512</dc:date>
    <dc:format>image/svg+xml</dc:format>
    <dc:creator>
     <cc:Agent>
      <dc:title>Matplotlib v3.3.2, https://matplotlib.org/</dc:title>
     </cc:Agent>
    </dc:creator>
   </cc:Work>
  </rdf:RDF>
 </metadata>
 <defs>
  <style type="text/css">*{stroke-linecap:butt;stroke-linejoin:round;}</style>
 </defs>
 <g id="figure_1">
  <g id="patch_1">
   <path d="M 0 288 
L 432 288 
L 432 0 
L 0 0 
z
" style="fill:#ffffff;"/>
  </g>
  <g id="axes_1">
   <g id="patch_2">
    <path d="M 54 252 
L 388.8 252 
L 388.8 34.56 
L 54 34.56 
z
" style="fill:#ffffff;"/>
   </g>
   <g id="matplotlib.axis_1">
    <g id="xtick_1">
     <g id="line2d_1">
      <path clip-path="url(#p583a02df01)" d="M 54 252 
L 54 34.56 
" style="fill:none;stroke:#b0b0b0;stroke-linecap:square;stroke-width:0.8;"/>
     </g>
     <g id="line2d_2">
      <defs>
       <path d="M 0 0 
L 0 3.5 
" id="mee78a2e268" style="stroke:#000000;stroke-width:0.8;"/>
      </defs>
      <g>
       <use style="stroke:#000000;stroke-width:0.8;" x="54" xlink:href="#mee78a2e268" y="252"/>
      </g>
     </g>
     <g id="text_1">
      <!-- 0 -->
      <g transform="translate(50.81875 266.598437)scale(0.1 -0.1)">
       <defs>
        <path d="M 31.78125 66.40625 
Q 24.171875 66.40625 20.328125 58.90625 
Q 16.5 51.421875 16.5 36.375 
Q 16.5 21.390625 20.328125 13.890625 
Q 24.171875 6.390625 31.78125 6.390625 
Q 39.453125 6.390625 43.28125 13.890625 
Q 47.125 21.390625 47.125 36.375 
Q 47.125 51.421875 43.28125 58.90625 
Q 39.453125 66.40625 31.78125 66.40625 
z
M 31.78125 74.21875 
Q 44.046875 74.21875 50.515625 64.515625 
Q 56.984375 54.828125 56.984375 36.375 
Q 56.984375 17.96875 50.515625 8.265625 
Q 44.046875 -1.421875 31.78125 -1.421875 
Q 19.53125 -1.421875 13.0625 8.265625 
Q 6.59375 17.96875 6.59375 36.375 
Q 6.59375 54.828125 13.0625 64.515625 
Q 19.53125 74.21875 31.78125 74.21875 
z
" id="DejaVuSans-48"/>
       </defs>
       <use xlink:href="#DejaVuSans-48"/>
      </g>
     </g>
    </g>
    <g id="xtick_2">
     <g id="line2d_3">
      <path clip-path="url(#p583a02df01)" d="M 120.96 252 
L 120.96 34.56 
" style="fill:none;stroke:#b0b0b0;stroke-linecap:square;stroke-width:0.8;"/>
     </g>
     <g id="line2d_4">
      <g>
       <use style="stroke:#000000;stroke-width:0.8;" x="120.96" xlink:href="#mee78a2e268" y="252"/>
      </g>
     </g>
     <g id="text_2">
      <!-- 2 -->
      <g transform="translate(117.77875 266.598437)scale(0.1 -0.1)">
       <defs>
        <path d="M 19.1875 8.296875 
L 53.609375 8.296875 
L 53.609375 0 
L 7.328125 0 
L 7.328125 8.296875 
Q 12.9375 14.109375 22.625 23.890625 
Q 32.328125 33.6875 34.8125 36.53125 
Q 39.546875 41.84375 41.421875 45.53125 
Q 43.3125 49.21875 43.3125 52.78125 
Q 43.3125 58.59375 39.234375 62.25 
Q 35.15625 65.921875 28.609375 65.921875 
Q 23.96875 65.921875 18.8125 64.3125 
Q 13.671875 62.703125 7.8125 59.421875 
L 7.8125 69.390625 
Q 13.765625 71.78125 18.9375 73 
Q 24.125 74.21875 28.421875 74.21875 
Q 39.75 74.21875 46.484375 68.546875 
Q 53.21875 62.890625 53.21875 53.421875 
Q 53.21875 48.921875 51.53125 44.890625 
Q 49.859375 40.875 45.40625 35.40625 
Q 44.1875 33.984375 37.640625 27.21875 
Q 31.109375 20.453125 19.1875 8.296875 
z
" id="DejaVuSans-50"/>
       </defs>
       <use xlink:href="#DejaVuSans-50"/>
      </g>
     </g>
    </g>
    <g id="xtick_3">
     <g id="line2d_5">
      <path clip-path="url(#p583a02df01)" d="M 187.92 252 
L 187.92 34.56 
" style="fill:none;stroke:#b0b0b0;stroke-linecap:square;stroke-width:0.8;"/>
     </g>
     <g id="line2d_6">
      <g>
       <use style="stroke:#000000;stroke-width:0.8;" x="187.92" xlink:href="#mee78a2e268" y="252"/>
      </g>
     </g>
     <g id="text_3">
      <!-- 4 -->
      <g transform="translate(184.73875 266.598437)scale(0.1 -0.1)">
       <defs>
        <path d="M 37.796875 64.3125 
L 12.890625 25.390625 
L 37.796875 25.390625 
z
M 35.203125 72.90625 
L 47.609375 72.90625 
L 47.609375 25.390625 
L 58.015625 25.390625 
L 58.015625 17.1875 
L 47.609375 17.1875 
L 47.609375 0 
L 37.796875 0 
L 37.796875 17.1875 
L 4.890625 17.1875 
L 4.890625 26.703125 
z
" id="DejaVuSans-52"/>
       </defs>
       <use xlink:href="#DejaVuSans-52"/>
      </g>
     </g>
    </g>
    <g id="xtick_4">
     <g id="line2d_7">
      <path clip-path="url(#p583a02df01)" d="M 254.88 252 
L 254.88 34.56 
" style="fill:none;stroke:#b0b0b0;stroke-linecap:square;stroke-width:0.8;"/>
     </g>
     <g id="line2d_8">
      <g>
       <use style="stroke:#000000;stroke-width:0.8;" x="254.88" xlink:href="#mee78a2e268" y="252"/>
      </g>
     </g>
     <g id="text_4">
      <!-- 6 -->
      <g transform="translate(251.69875 266.598437)scale(0.1 -0.1)">
       <defs>
        <path d="M 33.015625 40.375 
Q 26.375 40.375 22.484375 35.828125 
Q 18.609375 31.296875 18.609375 23.390625 
Q 18.609375 15.53125 22.484375 10.953125 
Q 26.375 6.390625 33.015625 6.390625 
Q 39.65625 6.390625 43.53125 10.953125 
Q 47.40625 15.53125 47.40625 23.390625 
Q 47.40625 31.296875 43.53125 35.828125 
Q 39.65625 40.375 33.015625 40.375 
z
M 52.59375 71.296875 
L 52.59375 62.3125 
Q 48.875 64.0625 45.09375 64.984375 
Q 41.3125 65.921875 37.59375 65.921875 
Q 27.828125 65.921875 22.671875 59.328125 
Q 17.53125 52.734375 16.796875 39.40625 
Q 19.671875 43.65625 24.015625 45.921875 
Q 28.375 48.1875 33.59375 48.1875 
Q 44.578125 48.1875 50.953125 41.515625 
Q 57.328125 34.859375 57.328125 23.390625 
Q 57.328125 12.15625 50.6875 5.359375 
Q 44.046875 -1.421875 33.015625 -1.421875 
Q 20.359375 -1.421875 13.671875 8.265625 
Q 6.984375 17.96875 6.984375 36.375 
Q 6.984375 53.65625 15.1875 63.9375 
Q 23.390625 74.21875 37.203125 74.21875 
Q 40.921875 74.21875 44.703125 73.484375 
Q 48.484375 72.75 52.59375 71.296875 
z
" id="DejaVuSans-54"/>
       </defs>
       <use xlink:href="#DejaVuSans-54"/>
      </g>
     </g>
    </g>
    <g id="xtick_5">
     <g id="line2d_9">
      <path clip-path="url(#p583a02df01)" d="M 321.84 252 
L 321.84 34.56 
" style="fill:none;stroke:#b0b0b0;stroke-linecap:square;stroke-width:0.8;"/>
     </g>
     <g id="line2d_10">
      <g>
       <use style="stroke:#000000;stroke-width:0.8;" x="321.84" xlink:href="#mee78a2e268" y="252"/>
      </g>
     </g>
     <g id="text_5">
      <!-- 8 -->
      <g transform="translate(318.65875 266.598437)scale(0.1 -0.1)">
       <defs>
        <path d="M 31.78125 34.625 
Q 24.75 34.625 20.71875 30.859375 
Q 16.703125 27.09375 16.703125 20.515625 
Q 16.703125 13.921875 20.71875 10.15625 
Q 24.75 6.390625 31.78125 6.390625 
Q 38.8125 6.390625 42.859375 10.171875 
Q 46.921875 13.96875 46.921875 20.515625 
Q 46.921875 27.09375 42.890625 30.859375 
Q 38.875 34.625 31.78125 34.625 
z
M 21.921875 38.8125 
Q 15.578125 40.375 12.03125 44.71875 
Q 8.5 49.078125 8.5 55.328125 
Q 8.5 64.0625 14.71875 69.140625 
Q 20.953125 74.21875 31.78125 74.21875 
Q 42.671875 74.21875 48.875 69.140625 
Q 55.078125 64.0625 55.078125 55.328125 
Q 55.078125 49.078125 51.53125 44.71875 
Q 48 40.375 41.703125 38.8125 
Q 48.828125 37.15625 52.796875 32.3125 
Q 56.78125 27.484375 56.78125 20.515625 
Q 56.78125 9.90625 50.3125 4.234375 
Q 43.84375 -1.421875 31.78125 -1.421875 
Q 19.734375 -1.421875 13.25 4.234375 
Q 6.78125 9.90625 6.78125 20.515625 
Q 6.78125 27.484375 10.78125 32.3125 
Q 14.796875 37.15625 21.921875 38.8125 
z
M 18.3125 54.390625 
Q 18.3125 48.734375 21.84375 45.5625 
Q 25.390625 42.390625 31.78125 42.390625 
Q 38.140625 42.390625 41.71875 45.5625 
Q 45.3125 48.734375 45.3125 54.390625 
Q 45.3125 60.0625 41.71875 63.234375 
Q 38.140625 66.40625 31.78125 66.40625 
Q 25.390625 66.40625 21.84375 63.234375 
Q 18.3125 60.0625 18.3125 54.390625 
z
" id="DejaVuSans-56"/>
       </defs>
       <use xlink:href="#DejaVuSans-56"/>
      </g>
     </g>
    </g>
    <g id="xtick_6">
     <g id="line2d_11">
      <path clip-path="url(#p583a02df01)" d="M 388.8 252 
L 388.8 34.56 
" style="fill:none;stroke:#b0b0b0;stroke-linecap:square;stroke-width:0.8;"/>
     </g>
     <g id="line2d_12">
      <g>
       <use style="stroke:#000000;stroke-width:0.8;" x="388.8" xlink:href="#mee78a2e268" y="252"/>
      </g>
     </g>
     <g id="text_6">
      <!-- 10 -->
      <g transform="translate(382.4375 266.598437)scale(0.1 -0.1)">
       <defs>
        <path d="M 12.40625 8.296875 
L 28.515625 8.296875 
L 28.515625 63.921875 
L 10.984375 60.40625 
L 10.984375 69.390625 
L 28.421875 72.90625 
L 38.28125 72.90625 
L 38.28125 8.296875 
L 54.390625 8.296875 
L 54.390625 0 
L 12.40625 0 
z
" id="DejaVuSans-49"/>
       </defs>
       <use xlink:href="#DejaVuSans-49"/>
       <use x="63.623047" xlink:href="#DejaVuSans-48"/>
      </g>
     </g>
    </g>
    <g id="text_7">
     <!-- temps [s] -->
     <g transform="translate(197.61875 280.276563)scale(0.1 -0.1)">
      <defs>
       <path d="M 18.3125 70.21875 
L 18.3125 54.6875 
L 36.8125 54.6875 
L 36.8125 47.703125 
L 18.3125 47.703125 
L 18.3125 18.015625 
Q 18.3125 11.328125 20.140625 9.421875 
Q 21.96875 7.515625 27.59375 7.515625 
L 36.8125 7.515625 
L 36.8125 0 
L 27.59375 0 
Q 17.1875 0 13.234375 3.875 
Q 9.28125 7.765625 9.28125 18.015625 
L 9.28125 47.703125 
L 2.6875 47.703125 
L 2.6875 54.6875 
L 9.28125 54.6875 
L 9.28125 70.21875 
z
" id="DejaVuSans-116"/>
       <path d="M 56.203125 29.59375 
L 56.203125 25.203125 
L 14.890625 25.203125 
Q 15.484375 15.921875 20.484375 11.0625 
Q 25.484375 6.203125 34.421875 6.203125 
Q 39.59375 6.203125 44.453125 7.46875 
Q 49.3125 8.734375 54.109375 11.28125 
L 54.109375 2.78125 
Q 49.265625 0.734375 44.1875 -0.34375 
Q 39.109375 -1.421875 33.890625 -1.421875 
Q 20.796875 -1.421875 13.15625 6.1875 
Q 5.515625 13.8125 5.515625 26.8125 
Q 5.515625 40.234375 12.765625 48.109375 
Q 20.015625 56 32.328125 56 
Q 43.359375 56 49.78125 48.890625 
Q 56.203125 41.796875 56.203125 29.59375 
z
M 47.21875 32.234375 
Q 47.125 39.59375 43.09375 43.984375 
Q 39.0625 48.390625 32.421875 48.390625 
Q 24.90625 48.390625 20.390625 44.140625 
Q 15.875 39.890625 15.1875 32.171875 
z
" id="DejaVuSans-101"/>
       <path d="M 52 44.1875 
Q 55.375 50.25 60.0625 53.125 
Q 64.75 56 71.09375 56 
Q 79.640625 56 84.28125 50.015625 
Q 88.921875 44.046875 88.921875 33.015625 
L 88.921875 0 
L 79.890625 0 
L 79.890625 32.71875 
Q 79.890625 40.578125 77.09375 44.375 
Q 74.3125 48.1875 68.609375 48.1875 
Q 61.625 48.1875 57.5625 43.546875 
Q 53.515625 38.921875 53.515625 30.90625 
L 53.515625 0 
L 44.484375 0 
L 44.484375 32.71875 
Q 44.484375 40.625 41.703125 44.40625 
Q 38.921875 48.1875 33.109375 48.1875 
Q 26.21875 48.1875 22.15625 43.53125 
Q 18.109375 38.875 18.109375 30.90625 
L 18.109375 0 
L 9.078125 0 
L 9.078125 54.6875 
L 18.109375 54.6875 
L 18.109375 46.1875 
Q 21.1875 51.21875 25.484375 53.609375 
Q 29.78125 56 35.6875 56 
Q 41.65625 56 45.828125 52.96875 
Q 50 49.953125 52 44.1875 
z
" id="DejaVuSans-109"/>
       <path d="M 18.109375 8.203125 
L 18.109375 -20.796875 
L 9.078125 -20.796875 
L 9.078125 54.6875 
L 18.109375 54.6875 
L 18.109375 46.390625 
Q 20.953125 51.265625 25.265625 53.625 
Q 29.59375 56 35.59375 56 
Q 45.5625 56 51.78125 48.09375 
Q 58.015625 40.1875 58.015625 27.296875 
Q 58.015625 14.40625 51.78125 6.484375 
Q 45.5625 -1.421875 35.59375 -1.421875 
Q 29.59375 -1.421875 25.265625 0.953125 
Q 20.953125 3.328125 18.109375 8.203125 
z
M 48.6875 27.296875 
Q 48.6875 37.203125 44.609375 42.84375 
Q 40.53125 48.484375 33.40625 48.484375 
Q 26.265625 48.484375 22.1875 42.84375 
Q 18.109375 37.203125 18.109375 27.296875 
Q 18.109375 17.390625 22.1875 11.75 
Q 26.265625 6.109375 33.40625 6.109375 
Q 40.53125 6.109375 44.609375 11.75 
Q 48.6875 17.390625 48.6875 27.296875 
z
" id="DejaVuSans-112"/>
       <path d="M 44.28125 53.078125 
L 44.28125 44.578125 
Q 40.484375 46.53125 36.375 47.5 
Q 32.28125 48.484375 27.875 48.484375 
Q 21.1875 48.484375 17.84375 46.4375 
Q 14.5 44.390625 14.5 40.28125 
Q 14.5 37.15625 16.890625 35.375 
Q 19.28125 33.59375 26.515625 31.984375 
L 29.59375 31.296875 
Q 39.15625 29.25 43.1875 25.515625 
Q 47.21875 21.78125 47.21875 15.09375 
Q 47.21875 7.46875 41.1875 3.015625 
Q 35.15625 -1.421875 24.609375 -1.421875 
Q 20.21875 -1.421875 15.453125 -0.5625 
Q 10.6875 0.296875 5.421875 2 
L 5.421875 11.28125 
Q 10.40625 8.6875 15.234375 7.390625 
Q 20.0625 6.109375 24.8125 6.109375 
Q 31.15625 6.109375 34.5625 8.28125 
Q 37.984375 10.453125 37.984375 14.40625 
Q 37.984375 18.0625 35.515625 20.015625 
Q 33.0625 21.96875 24.703125 23.78125 
L 21.578125 24.515625 
Q 13.234375 26.265625 9.515625 29.90625 
Q 5.8125 33.546875 5.8125 39.890625 
Q 5.8125 47.609375 11.28125 51.796875 
Q 16.75 56 26.8125 56 
Q 31.78125 56 36.171875 55.265625 
Q 40.578125 54.546875 44.28125 53.078125 
z
" id="DejaVuSans-115"/>
       <path id="DejaVuSans-32"/>
       <path d="M 8.59375 75.984375 
L 29.296875 75.984375 
L 29.296875 69 
L 17.578125 69 
L 17.578125 -6.203125 
L 29.296875 -6.203125 
L 29.296875 -13.1875 
L 8.59375 -13.1875 
z
" id="DejaVuSans-91"/>
       <path d="M 30.421875 75.984375 
L 30.421875 -13.1875 
L 9.71875 -13.1875 
L 9.71875 -6.203125 
L 21.390625 -6.203125 
L 21.390625 69 
L 9.71875 69 
L 9.71875 75.984375 
z
" id="DejaVuSans-93"/>
      </defs>
      <use xlink:href="#DejaVuSans-116"/>
      <use x="39.208984" xlink:href="#DejaVuSans-101"/>
      <use x="100.732422" xlink:href="#DejaVuSans-109"/>
      <use x="198.144531" xlink:href="#DejaVuSans-112"/>
      <use x="261.621094" xlink:href="#DejaVuSans-115"/>
      <use x="313.720703" xlink:href="#DejaVuSans-32"/>
      <use x="345.507812" xlink:href="#DejaVuSans-91"/>
      <use x="384.521484" xlink:href="#DejaVuSans-115"/>
      <use x="436.621094" xlink:href="#DejaVuSans-93"/>
     </g>
    </g>
   </g>
   <g id="matplotlib.axis_2">
    <g id="ytick_1">
     <g id="line2d_13">
      <path clip-path="url(#p583a02df01)" d="M 54 221.212522 
L 388.8 221.212522 
" style="fill:none;stroke:#b0b0b0;stroke-linecap:square;stroke-width:0.8;"/>
     </g>
     <g id="line2d_14">
      <defs>
       <path d="M 0 0 
L -3.5 0 
" id="mfada155b3a" style="stroke:#000000;stroke-width:0.8;"/>
      </defs>
      <g>
       <use style="stroke:#000000;stroke-width:0.8;" x="54" xlink:href="#mfada155b3a" y="221.212522"/>
      </g>
     </g>
     <g id="text_8">
      <!-- −0.2 -->
      <g transform="translate(22.717187 225.011741)scale(0.1 -0.1)">
       <defs>
        <path d="M 10.59375 35.5 
L 73.1875 35.5 
L 73.1875 27.203125 
L 10.59375 27.203125 
z
" id="DejaVuSans-8722"/>
        <path d="M 10.6875 12.40625 
L 21 12.40625 
L 21 0 
L 10.6875 0 
z
" id="DejaVuSans-46"/>
       </defs>
       <use xlink:href="#DejaVuSans-8722"/>
       <use x="83.789062" xlink:href="#DejaVuSans-48"/>
       <use x="147.412109" xlink:href="#DejaVuSans-46"/>
       <use x="179.199219" xlink:href="#DejaVuSans-50"/>
      </g>
     </g>
    </g>
    <g id="ytick_2">
     <g id="line2d_15">
      <path clip-path="url(#p583a02df01)" d="M 54 182.604044 
L 388.8 182.604044 
" style="fill:none;stroke:#b0b0b0;stroke-linecap:square;stroke-width:0.8;"/>
     </g>
     <g id="line2d_16">
      <g>
       <use style="stroke:#000000;stroke-width:0.8;" x="54" xlink:href="#mfada155b3a" y="182.604044"/>
      </g>
     </g>
     <g id="text_9">
      <!-- −0.1 -->
      <g transform="translate(22.717187 186.403263)scale(0.1 -0.1)">
       <use xlink:href="#DejaVuSans-8722"/>
       <use x="83.789062" xlink:href="#DejaVuSans-48"/>
       <use x="147.412109" xlink:href="#DejaVuSans-46"/>
       <use x="179.199219" xlink:href="#DejaVuSans-49"/>
      </g>
     </g>
    </g>
    <g id="ytick_3">
     <g id="line2d_17">
      <path clip-path="url(#p583a02df01)" d="M 54 143.995566 
L 388.8 143.995566 
" style="fill:none;stroke:#b0b0b0;stroke-linecap:square;stroke-width:0.8;"/>
     </g>
     <g id="line2d_18">
      <g>
       <use style="stroke:#000000;stroke-width:0.8;" x="54" xlink:href="#mfada155b3a" y="143.995566"/>
      </g>
     </g>
     <g id="text_10">
      <!-- 0.0 -->
      <g transform="translate(31.096875 147.794784)scale(0.1 -0.1)">
       <use xlink:href="#DejaVuSans-48"/>
       <use x="63.623047" xlink:href="#DejaVuSans-46"/>
       <use x="95.410156" xlink:href="#DejaVuSans-48"/>
      </g>
     </g>
    </g>
    <g id="ytick_4">
     <g id="line2d_19">
      <path clip-path="url(#p583a02df01)" d="M 54 105.387087 
L 388.8 105.387087 
" style="fill:none;stroke:#b0b0b0;stroke-linecap:square;stroke-width:0.8;"/>
     </g>
     <g id="line2d_20">
      <g>
       <use style="stroke:#000000;stroke-width:0.8;" x="54" xlink:href="#mfada155b3a" y="105.387087"/>
      </g>
     </g>
     <g id="text_11">
      <!-- 0.1 -->
      <g transform="translate(31.096875 109.186306)scale(0.1 -0.1)">
       <use xlink:href="#DejaVuSans-48"/>
       <use x="63.623047" xlink:href="#DejaVuSans-46"/>
       <use x="95.410156" xlink:href="#DejaVuSans-49"/>
      </g>
     </g>
    </g>
    <g id="ytick_5">
     <g id="line2d_21">
      <path clip-path="url(#p583a02df01)" d="M 54 66.778609 
L 388.8 66.778609 
" style="fill:none;stroke:#b0b0b0;stroke-linecap:square;stroke-width:0.8;"/>
     </g>
     <g id="line2d_22">
      <g>
       <use style="stroke:#000000;stroke-width:0.8;" x="54" xlink:href="#mfada155b3a" y="66.778609"/>
      </g>
     </g>
     <g id="text_12">
      <!-- 0.2 -->
      <g transform="translate(31.096875 70.577828)scale(0.1 -0.1)">
       <use xlink:href="#DejaVuSans-48"/>
       <use x="63.623047" xlink:href="#DejaVuSans-46"/>
       <use x="95.410156" xlink:href="#DejaVuSans-50"/>
      </g>
     </g>
    </g>
    <g id="text_13">
     <!-- angle de roulis [°] -->
     <g transform="translate(16.6375 188.126094)rotate(-90)scale(0.1 -0.1)">
      <defs>
       <path d="M 34.28125 27.484375 
Q 23.390625 27.484375 19.1875 25 
Q 14.984375 22.515625 14.984375 16.5 
Q 14.984375 11.71875 18.140625 8.90625 
Q 21.296875 6.109375 26.703125 6.109375 
Q 34.1875 6.109375 38.703125 11.40625 
Q 43.21875 16.703125 43.21875 25.484375 
L 43.21875 27.484375 
z
M 52.203125 31.203125 
L 52.203125 0 
L 43.21875 0 
L 43.21875 8.296875 
Q 40.140625 3.328125 35.546875 0.953125 
Q 30.953125 -1.421875 24.3125 -1.421875 
Q 15.921875 -1.421875 10.953125 3.296875 
Q 6 8.015625 6 15.921875 
Q 6 25.140625 12.171875 29.828125 
Q 18.359375 34.515625 30.609375 34.515625 
L 43.21875 34.515625 
L 43.21875 35.40625 
Q 43.21875 41.609375 39.140625 45 
Q 35.0625 48.390625 27.6875 48.390625 
Q 23 48.390625 18.546875 47.265625 
Q 14.109375 46.140625 10.015625 43.890625 
L 10.015625 52.203125 
Q 14.9375 54.109375 19.578125 55.046875 
Q 24.21875 56 28.609375 56 
Q 40.484375 56 46.34375 49.84375 
Q 52.203125 43.703125 52.203125 31.203125 
z
" id="DejaVuSans-97"/>
       <path d="M 54.890625 33.015625 
L 54.890625 0 
L 45.90625 0 
L 45.90625 32.71875 
Q 45.90625 40.484375 42.875 44.328125 
Q 39.84375 48.1875 33.796875 48.1875 
Q 26.515625 48.1875 22.3125 43.546875 
Q 18.109375 38.921875 18.109375 30.90625 
L 18.109375 0 
L 9.078125 0 
L 9.078125 54.6875 
L 18.109375 54.6875 
L 18.109375 46.1875 
Q 21.34375 51.125 25.703125 53.5625 
Q 30.078125 56 35.796875 56 
Q 45.21875 56 50.046875 50.171875 
Q 54.890625 44.34375 54.890625 33.015625 
z
" id="DejaVuSans-110"/>
       <path d="M 45.40625 27.984375 
Q 45.40625 37.75 41.375 43.109375 
Q 37.359375 48.484375 30.078125 48.484375 
Q 22.859375 48.484375 18.828125 43.109375 
Q 14.796875 37.75 14.796875 27.984375 
Q 14.796875 18.265625 18.828125 12.890625 
Q 22.859375 7.515625 30.078125 7.515625 
Q 37.359375 7.515625 41.375 12.890625 
Q 45.40625 18.265625 45.40625 27.984375 
z
M 54.390625 6.78125 
Q 54.390625 -7.171875 48.1875 -13.984375 
Q 42 -20.796875 29.203125 -20.796875 
Q 24.46875 -20.796875 20.265625 -20.09375 
Q 16.0625 -19.390625 12.109375 -17.921875 
L 12.109375 -9.1875 
Q 16.0625 -11.328125 19.921875 -12.34375 
Q 23.78125 -13.375 27.78125 -13.375 
Q 36.625 -13.375 41.015625 -8.765625 
Q 45.40625 -4.15625 45.40625 5.171875 
L 45.40625 9.625 
Q 42.625 4.78125 38.28125 2.390625 
Q 33.9375 0 27.875 0 
Q 17.828125 0 11.671875 7.65625 
Q 5.515625 15.328125 5.515625 27.984375 
Q 5.515625 40.671875 11.671875 48.328125 
Q 17.828125 56 27.875 56 
Q 33.9375 56 38.28125 53.609375 
Q 42.625 51.21875 45.40625 46.390625 
L 45.40625 54.6875 
L 54.390625 54.6875 
z
" id="DejaVuSans-103"/>
       <path d="M 9.421875 75.984375 
L 18.40625 75.984375 
L 18.40625 0 
L 9.421875 0 
z
" id="DejaVuSans-108"/>
       <path d="M 45.40625 46.390625 
L 45.40625 75.984375 
L 54.390625 75.984375 
L 54.390625 0 
L 45.40625 0 
L 45.40625 8.203125 
Q 42.578125 3.328125 38.25 0.953125 
Q 33.9375 -1.421875 27.875 -1.421875 
Q 17.96875 -1.421875 11.734375 6.484375 
Q 5.515625 14.40625 5.515625 27.296875 
Q 5.515625 40.1875 11.734375 48.09375 
Q 17.96875 56 27.875 56 
Q 33.9375 56 38.25 53.625 
Q 42.578125 51.265625 45.40625 46.390625 
z
M 14.796875 27.296875 
Q 14.796875 17.390625 18.875 11.75 
Q 22.953125 6.109375 30.078125 6.109375 
Q 37.203125 6.109375 41.296875 11.75 
Q 45.40625 17.390625 45.40625 27.296875 
Q 45.40625 37.203125 41.296875 42.84375 
Q 37.203125 48.484375 30.078125 48.484375 
Q 22.953125 48.484375 18.875 42.84375 
Q 14.796875 37.203125 14.796875 27.296875 
z
" id="DejaVuSans-100"/>
       <path d="M 41.109375 46.296875 
Q 39.59375 47.171875 37.8125 47.578125 
Q 36.03125 48 33.890625 48 
Q 26.265625 48 22.1875 43.046875 
Q 18.109375 38.09375 18.109375 28.8125 
L 18.109375 0 
L 9.078125 0 
L 9.078125 54.6875 
L 18.109375 54.6875 
L 18.109375 46.1875 
Q 20.953125 51.171875 25.484375 53.578125 
Q 30.03125 56 36.53125 56 
Q 37.453125 56 38.578125 55.875 
Q 39.703125 55.765625 41.0625 55.515625 
z
" id="DejaVuSans-114"/>
       <path d="M 30.609375 48.390625 
Q 23.390625 48.390625 19.1875 42.75 
Q 14.984375 37.109375 14.984375 27.296875 
Q 14.984375 17.484375 19.15625 11.84375 
Q 23.34375 6.203125 30.609375 6.203125 
Q 37.796875 6.203125 41.984375 11.859375 
Q 46.1875 17.53125 46.1875 27.296875 
Q 46.1875 37.015625 41.984375 42.703125 
Q 37.796875 48.390625 30.609375 48.390625 
z
M 30.609375 56 
Q 42.328125 56 49.015625 48.375 
Q 55.71875 40.765625 55.71875 27.296875 
Q 55.71875 13.875 49.015625 6.21875 
Q 42.328125 -1.421875 30.609375 -1.421875 
Q 18.84375 -1.421875 12.171875 6.21875 
Q 5.515625 13.875 5.515625 27.296875 
Q 5.515625 40.765625 12.171875 48.375 
Q 18.84375 56 30.609375 56 
z
" id="DejaVuSans-111"/>
       <path d="M 8.5 21.578125 
L 8.5 54.6875 
L 17.484375 54.6875 
L 17.484375 21.921875 
Q 17.484375 14.15625 20.5 10.265625 
Q 23.53125 6.390625 29.59375 6.390625 
Q 36.859375 6.390625 41.078125 11.03125 
Q 45.3125 15.671875 45.3125 23.6875 
L 45.3125 54.6875 
L 54.296875 54.6875 
L 54.296875 0 
L 45.3125 0 
L 45.3125 8.40625 
Q 42.046875 3.421875 37.71875 1 
Q 33.40625 -1.421875 27.6875 -1.421875 
Q 18.265625 -1.421875 13.375 4.4375 
Q 8.5 10.296875 8.5 21.578125 
z
M 31.109375 56 
z
" id="DejaVuSans-117"/>
       <path d="M 9.421875 54.6875 
L 18.40625 54.6875 
L 18.40625 0 
L 9.421875 0 
z
M 9.421875 75.984375 
L 18.40625 75.984375 
L 18.40625 64.59375 
L 9.421875 64.59375 
z
" id="DejaVuSans-105"/>
       <path d="M 25 67.921875 
Q 21.09375 67.921875 18.40625 65.203125 
Q 15.71875 62.5 15.71875 58.59375 
Q 15.71875 54.734375 18.40625 52.078125 
Q 21.09375 49.421875 25 49.421875 
Q 28.90625 49.421875 31.59375 52.078125 
Q 34.28125 54.734375 34.28125 58.59375 
Q 34.28125 62.453125 31.5625 65.1875 
Q 28.859375 67.921875 25 67.921875 
z
M 25 74.21875 
Q 28.125 74.21875 31 73.015625 
Q 33.890625 71.828125 35.984375 69.578125 
Q 38.234375 67.390625 39.359375 64.59375 
Q 40.484375 61.8125 40.484375 58.59375 
Q 40.484375 52.15625 35.96875 47.6875 
Q 31.453125 43.21875 24.90625 43.21875 
Q 18.3125 43.21875 13.90625 47.609375 
Q 9.515625 52 9.515625 58.59375 
Q 9.515625 65.140625 14 69.671875 
Q 18.5 74.21875 25 74.21875 
z
" id="DejaVuSans-176"/>
      </defs>
      <use xlink:href="#DejaVuSans-97"/>
      <use x="61.279297" xlink:href="#DejaVuSans-110"/>
      <use x="124.658203" xlink:href="#DejaVuSans-103"/>
      <use x="188.134766" xlink:href="#DejaVuSans-108"/>
      <use x="215.917969" xlink:href="#DejaVuSans-101"/>
      <use x="277.441406" xlink:href="#DejaVuSans-32"/>
      <use x="309.228516" xlink:href="#DejaVuSans-100"/>
      <use x="372.705078" xlink:href="#DejaVuSans-101"/>
      <use x="434.228516" xlink:href="#DejaVuSans-32"/>
      <use x="466.015625" xlink:href="#DejaVuSans-114"/>
      <use x="504.878906" xlink:href="#DejaVuSans-111"/>
      <use x="566.060547" xlink:href="#DejaVuSans-117"/>
      <use x="629.439453" xlink:href="#DejaVuSans-108"/>
      <use x="657.222656" xlink:href="#DejaVuSans-105"/>
      <use x="685.005859" xlink:href="#DejaVuSans-115"/>
      <use x="737.105469" xlink:href="#DejaVuSans-32"/>
      <use x="768.892578" xlink:href="#DejaVuSans-91"/>
      <use x="807.90625" xlink:href="#DejaVuSans-176"/>
      <use x="857.90625" xlink:href="#DejaVuSans-93"/>
     </g>
    </g>
   </g>
   <g id="line2d_23">
    <path clip-path="url(#p583a02df01)" d="M 54 143.995566 
L 88.4844 144.104129 
L 88.9866 144.430834 
L 90.76104 145.872528 
L 91.63152 146.392359 
L 92.23416 147.063861 
L 92.8368 148.085102 
L 93.40596 149.503878 
L 93.94164 151.483142 
L 94.47732 154.37289 
L 95.04648 158.708217 
L 95.71608 165.648792 
L 96.58656 177.314813 
L 99.5328 219.071219 
L 100.2024 225.38274 
L 100.67112 227.98753 
L 100.97244 228.662558 
L 101.13984 228.660022 
L 101.30724 228.370363 
L 101.5416 227.45832 
L 101.8764 225.075919 
L 102.27816 220.467133 
L 102.78036 212.018143 
L 103.44996 196.540294 
L 104.3874 168.957889 
L 107.4006 76.108962 
L 108.17064 60.481036 
L 108.80676 51.796233 
L 109.34244 47.311059 
L 109.77768 45.303201 
L 110.11248 44.586865 
L 110.38032 44.444498 
L 110.61468 44.584493 
L 110.916 45.067337 
L 111.35124 46.239409 
L 112.02084 48.795241 
L 112.99176 53.462754 
L 113.89572 58.859305 
L 114.66576 64.860501 
L 115.50276 73.262828 
L 116.37324 84.287457 
L 117.21024 97.813155 
L 118.08072 115.772884 
L 119.18556 143.702982 
L 121.797 211.291189 
L 122.70096 229.075893 
L 123.33708 237.599465 
L 123.77232 240.9732 
L 124.07364 242.010392 
L 124.24104 242.10828 
L 124.37496 241.937071 
L 124.57584 241.263497 
L 124.87716 239.325612 
L 125.27892 235.083484 
L 125.8146 226.804365 
L 126.58464 210.930883 
L 127.95732 177.009562 
L 129.43044 142.259579 
L 130.23396 128.136941 
L 130.87008 120.421275 
L 131.43924 115.981567 
L 131.94144 113.622917 
L 132.41016 112.366819 
L 132.87888 111.692065 
L 133.44804 111.266905 
L 134.352 110.632002 
L 134.8542 109.957284 
L 135.42336 108.780799 
L 137.16432 104.809798 
L 137.5326 104.550655 
L 137.83392 104.585184 
L 138.13524 104.860443 
L 138.47004 105.482123 
L 138.8718 106.748864 
L 139.30704 108.913573 
L 139.80924 112.663455 
L 140.3784 118.747206 
L 141.08148 128.894554 
L 142.11936 147.587654 
L 144.32904 187.75014 
L 145.13256 198.72048 
L 145.66824 203.527661 
L 146.07 205.444201 
L 146.30436 205.82954 
L 146.47176 205.762887 
L 146.67264 205.302979 
L 146.94048 204.047512 
L 147.30876 201.157793 
L 147.81096 195.237769 
L 148.51404 183.950565 
L 149.81976 158.535038 
L 151.32636 130.554244 
L 152.06292 120.619844 
L 152.63208 115.636683 
L 153.06732 113.469549 
L 153.40212 112.684046 
L 153.66996 112.53235 
L 153.90432 112.693303 
L 154.20564 113.226656 
L 154.67436 114.576184 
L 155.7792 118.701701 
L 156.54924 121.13194 
L 157.01796 122.002258 
L 157.35276 122.240352 
L 157.6206 122.187024 
L 157.92192 121.882804 
L 158.35716 121.072634 
L 160.19856 117.172195 
L 160.56684 116.952052 
L 160.86816 117.004942 
L 161.16948 117.315834 
L 161.50428 118.038079 
L 161.87256 119.400575 
L 162.3078 121.932405 
L 162.81 126.24153 
L 163.44612 133.811279 
L 164.35008 147.63391 
L 166.8276 186.846504 
L 167.56416 195.087089 
L 168.06636 198.582285 
L 168.40116 199.719693 
L 168.63552 199.901416 
L 168.80292 199.713316 
L 169.03728 199.002919 
L 169.37208 197.097473 
L 169.80732 193.144596 
L 170.40996 185.339436 
L 171.3474 169.789803 
L 173.62404 131.21601 
L 174.29364 123.588704 
L 174.79584 119.969157 
L 175.1976 118.417634 
L 175.49892 117.981082 
L 175.6998 117.998853 
L 175.93416 118.292746 
L 176.26896 119.137353 
L 176.80464 121.220281 
L 179.08128 130.977176 
L 179.48304 131.59902 
L 179.75088 131.666474 
L 179.98524 131.489608 
L 180.28656 130.951834 
L 180.7218 129.644691 
L 181.45836 126.568396 
L 182.63016 121.788062 
L 183.26628 120.06255 
L 183.66804 119.502241 
L 183.93588 119.44461 
L 184.17024 119.65033 
L 184.43808 120.224957 
L 184.77288 121.516269 
L 185.20812 124.227035 
L 185.7438 129.166662 
L 186.44688 137.916425 
L 187.98696 160.853761 
L 189.29268 178.587706 
L 189.99576 185.566921 
L 190.46448 188.417552 
L 190.79928 189.366035 
L 191.00016 189.468476 
L 191.16756 189.281144 
L 191.40192 188.603105 
L 191.73672 186.813827 
L 192.17196 183.150297 
L 192.7746 176.028116 
L 193.81248 160.575749 
L 195.65388 133.26004 
L 196.35696 125.930099 
L 196.85916 122.693121 
L 197.22744 121.483156 
L 197.49528 121.201942 
L 197.69616 121.297566 
L 197.93052 121.709471 
L 198.2988 122.91402 
L 198.83448 125.550884 
L 200.27412 134.307146 
L 201.07764 138.33356 
L 201.57984 139.865892 
L 201.91464 140.295769 
L 202.149 140.283664 
L 202.38336 140.010672 
L 202.71816 139.190276 
L 203.18688 137.318629 
L 203.9904 132.954524 
L 205.29612 125.998201 
L 205.96572 123.535551 
L 206.36748 122.727747 
L 206.63532 122.577649 
L 206.8362 122.707401 
L 207.07056 123.14987 
L 207.40536 124.366801 
L 207.80712 126.766767 
L 208.3428 131.481903 
L 209.07936 140.170384 
L 211.99212 176.814158 
L 212.56128 180.980788 
L 212.96304 182.563187 
L 213.23088 182.904851 
L 213.39828 182.816675 
L 213.59916 182.402807 
L 213.90048 181.162577 
L 214.30224 178.418974 
L 214.8714 172.716292 
L 215.74188 161.335096 
L 217.95156 131.638509 
L 218.62116 125.696399 
L 219.08988 123.268072 
L 219.42468 122.492214 
L 219.62556 122.40312 
L 219.82644 122.580985 
L 220.09428 123.200285 
L 220.49604 124.829873 
L 221.09868 128.395472 
L 223.5762 144.245588 
L 224.01144 145.521003 
L 224.31276 145.863948 
L 224.51364 145.828116 
L 224.748 145.517292 
L 225.0828 144.59303 
L 225.55152 142.479363 
L 226.28808 137.909168 
L 227.96208 127.302985 
L 228.5982 124.567688 
L 228.99996 123.613257 
L 229.2678 123.423977 
L 229.46868 123.552083 
L 229.70304 124.016678 
L 230.03784 125.293494 
L 230.47308 128.023596 
L 231.04224 133.21921 
L 231.91272 143.539485 
L 234.05544 169.465388 
L 234.75852 175.316351 
L 235.22724 177.566991 
L 235.52856 178.155985 
L 235.69596 178.174219 
L 235.89684 177.900857 
L 236.16468 177.040769 
L 236.53296 174.975992 
L 237.03516 170.711984 
L 237.77172 162.289418 
L 240.51708 128.943847 
L 241.08624 125.114011 
L 241.488 123.721627 
L 241.75584 123.427201 
L 241.92324 123.494711 
L 242.1576 123.897466 
L 242.4924 125.040487 
L 242.96112 127.55924 
L 243.73116 133.124711 
L 245.53908 146.474683 
L 246.10824 149.177427 
L 246.51 150.185589 
L 246.77784 150.369231 
L 246.97872 150.238723 
L 247.24656 149.710956 
L 247.61484 148.368175 
L 248.11704 145.5838 
L 249.021 139.024173 
L 250.46064 128.814071 
L 251.13024 125.483352 
L 251.56548 124.300373 
L 251.83332 124.083831 
L 252.0342 124.209841 
L 252.26856 124.686199 
L 252.60336 125.992629 
L 253.0386 128.75108 
L 253.64124 134.247394 
L 254.64564 145.893503 
L 256.35312 165.365115 
L 257.0562 171.148182 
L 257.52492 173.47664 
L 257.85972 174.194863 
L 258.0606 174.218193 
L 258.26148 173.930904 
L 258.52932 173.07131 
L 258.8976 171.046459 
L 259.3998 166.918441 
L 260.16984 158.472065 
L 262.64736 129.989285 
L 263.21652 126.031627 
L 263.61828 124.468429 
L 263.9196 124.031359 
L 264.087 124.061548 
L 264.28788 124.346782 
L 264.5892 125.252038 
L 265.02444 127.435801 
L 265.66056 131.954064 
L 268.17156 151.053307 
L 268.64028 152.870624 
L 268.97508 153.454507 
L 269.17596 153.490282 
L 269.37684 153.285211 
L 269.64468 152.644292 
L 270.01296 151.126155 
L 270.54864 147.843318 
L 271.51956 140.179148 
L 272.89224 129.74704 
L 273.56184 126.131669 
L 273.99708 124.804335 
L 274.26492 124.513374 
L 274.4658 124.588956 
L 274.70016 125.010162 
L 275.00148 126.083931 
L 275.40324 128.409922 
L 275.9724 133.205046 
L 276.87636 143.053153 
L 278.75124 163.539176 
L 279.45432 168.922377 
L 279.92304 170.997778 
L 280.22436 171.53413 
L 280.42524 171.520172 
L 280.62612 171.205427 
L 280.92744 170.179974 
L 281.3292 167.847634 
L 281.89836 162.972069 
L 282.8358 152.557877 
L 284.6772 132.067899 
L 285.3468 126.933308 
L 285.81552 124.859568 
L 286.11684 124.306619 
L 286.31772 124.287759 
L 286.5186 124.543612 
L 286.78644 125.291606 
L 287.1882 127.194503 
L 287.75736 131.131668 
L 288.92916 141.270182 
L 290.13444 150.966654 
L 290.77056 154.499202 
L 291.17232 155.728915 
L 291.44016 156.02772 
L 291.64104 155.96255 
L 291.8754 155.572286 
L 292.2102 154.451074 
L 292.64544 152.114748 
L 293.31504 147.121524 
L 295.75908 127.685439 
L 296.29476 125.302112 
L 296.62956 124.582186 
L 296.86392 124.490737 
L 297.0648 124.699036 
L 297.33264 125.395279 
L 297.70092 127.114567 
L 298.20312 130.733239 
L 298.93968 137.960468 
L 301.51764 164.699304 
L 302.0868 168.138291 
L 302.45508 169.301703 
L 302.68944 169.546351 
L 302.85684 169.476113 
L 303.05772 169.121753 
L 303.35904 168.051209 
L 303.7608 165.691889 
L 304.32996 160.856266 
L 305.30088 150.325279 
L 307.00836 132.022115 
L 307.67796 127.023425 
L 308.14668 125.012552 
L 308.448 124.492253 
L 308.64888 124.494274 
L 308.84976 124.771786 
L 309.15108 125.680721 
L 309.55284 127.716076 
L 310.15548 132.11634 
L 311.49468 144.182337 
L 312.59952 153.130506 
L 313.20216 156.436687 
L 313.60392 157.610634 
L 313.87176 157.851131 
L 314.07264 157.733258 
L 314.307 157.273858 
L 314.6418 156.043633 
L 315.11052 153.328543 
L 315.8136 147.741891 
L 318.09024 128.697054 
L 318.6594 125.821496 
L 319.02768 124.861582 
L 319.26204 124.688671 
L 319.42944 124.786741 
L 319.6638 125.239755 
L 319.9986 126.516215 
L 320.43384 129.198186 
L 321.06996 134.761202 
L 322.40916 149.158265 
L 323.64792 161.315191 
L 324.28404 165.689554 
L 324.71928 167.392723 
L 325.0206 167.827015 
L 325.188 167.789107 
L 325.38888 167.478271 
L 325.6902 166.481082 
L 326.09196 164.231426 
L 326.66112 159.567878 
L 327.63204 149.362464 
L 329.30604 132.005025 
L 329.97564 127.144059 
L 330.44436 125.184018 
L 330.74568 124.683029 
L 330.94656 124.694955 
L 331.14744 124.981651 
L 331.44876 125.905822 
L 331.85052 127.969752 
L 332.45316 132.441184 
L 333.7254 144.143457 
L 334.8972 153.962651 
L 335.49984 157.455876 
L 335.9016 158.773829 
L 336.16944 159.112137 
L 336.37032 159.065155 
L 336.60468 158.682639 
L 336.906 157.68888 
L 337.34124 155.354413 
L 337.97736 150.493101 
L 340.78968 127.139443 
L 341.2584 125.288004 
L 341.55972 124.774838 
L 341.7606 124.759074 
L 341.96148 125.013008 
L 342.22932 125.770398 
L 342.5976 127.558915 
L 343.0998 131.210931 
L 343.90332 139.005977 
L 346.04604 160.567474 
L 346.68216 164.790862 
L 347.1174 166.398029 
L 347.38524 166.763095 
L 347.55264 166.735955 
L 347.75352 166.44208 
L 348.05484 165.477898 
L 348.4566 163.284635 
L 349.02576 158.720279 
L 349.99668 148.715869 
L 351.6372 132.004455 
L 352.3068 127.160071 
L 352.77552 125.170916 
L 353.07684 124.639923 
L 353.27772 124.629877 
L 353.4786 124.894892 
L 353.74644 125.662599 
L 354.1482 127.627643 
L 354.71736 131.752354 
L 355.75524 141.351755 
L 357.19488 154.194731 
L 357.86448 158.374745 
L 358.29972 159.901729 
L 358.60104 160.281152 
L 358.80192 160.206507 
L 359.03628 159.787025 
L 359.37108 158.590266 
L 359.80632 156.096188 
L 360.47592 150.731548 
L 363.15432 127.61824 
L 363.65652 125.382071 
L 363.99132 124.706028 
L 364.1922 124.650565 
L 364.39308 124.866653 
L 364.66092 125.575886 
L 365.0292 127.301313 
L 365.5314 130.870936 
L 366.30144 138.192598 
L 368.5446 160.379702 
L 369.14724 164.171572 
L 369.549 165.563844 
L 369.81684 165.896283 
L 369.98424 165.849966 
L 370.18512 165.53509 
L 370.48644 164.545144 
L 370.8882 162.331999 
L 371.45736 157.775769 
L 372.46176 147.527938 
L 374.03532 131.812123 
L 374.70492 127.084119 
L 375.14016 125.271398 
L 375.44148 124.729117 
L 375.64236 124.710902 
L 375.84324 124.968274 
L 376.11108 125.728053 
L 376.51284 127.689412 
L 377.082 131.832007 
L 378.0864 141.205174 
L 379.593 154.848839 
L 380.2626 159.062343 
L 380.69784 160.593024 
L 380.96568 160.954265 
L 381.16656 160.916536 
L 381.36744 160.612384 
L 381.66876 159.670099 
L 382.07052 157.581427 
L 382.63968 153.324074 
L 383.74452 142.947041 
L 385.08372 131.005468 
L 385.75332 126.768353 
L 386.18856 125.19675 
L 386.48988 124.793458 
L 386.69076 124.859943 
L 386.92512 125.28165 
L 387.22644 126.356024 
L 387.66168 128.876999 
L 388.26432 133.863643 
L 388.83348 139.531158 
L 388.83348 139.531158 
" style="fill:none;stroke:#1f77b4;stroke-linecap:square;stroke-width:1.5;"/>
   </g>
   <g id="patch_3">
    <path d="M 54 252 
L 54 34.56 
" style="fill:none;stroke:#000000;stroke-linecap:square;stroke-linejoin:miter;stroke-width:0.8;"/>
   </g>
   <g id="patch_4">
    <path d="M 388.8 252 
L 388.8 34.56 
" style="fill:none;stroke:#000000;stroke-linecap:square;stroke-linejoin:miter;stroke-width:0.8;"/>
   </g>
   <g id="patch_5">
    <path d="M 54 252 
L 388.8 252 
" style="fill:none;stroke:#000000;stroke-linecap:square;stroke-linejoin:miter;stroke-width:0.8;"/>
   </g>
   <g id="patch_6">
    <path d="M 54 34.56 
L 388.8 34.56 
" style="fill:none;stroke:#000000;stroke-linecap:square;stroke-linejoin:miter;stroke-width:0.8;"/>
   </g>
   <g id="text_14">
    <!-- Voie rectiligne avec défaut de dressage -->
    <g transform="translate(102.79125 28.56)scale(0.12 -0.12)">
     <defs>
      <path d="M 28.609375 0 
L 0.78125 72.90625 
L 11.078125 72.90625 
L 34.1875 11.53125 
L 57.328125 72.90625 
L 67.578125 72.90625 
L 39.796875 0 
z
" id="DejaVuSans-86"/>
      <path d="M 48.78125 52.59375 
L 48.78125 44.1875 
Q 44.96875 46.296875 41.140625 47.34375 
Q 37.3125 48.390625 33.40625 48.390625 
Q 24.65625 48.390625 19.8125 42.84375 
Q 14.984375 37.3125 14.984375 27.296875 
Q 14.984375 17.28125 19.8125 11.734375 
Q 24.65625 6.203125 33.40625 6.203125 
Q 37.3125 6.203125 41.140625 7.25 
Q 44.96875 8.296875 48.78125 10.40625 
L 48.78125 2.09375 
Q 45.015625 0.34375 40.984375 -0.53125 
Q 36.96875 -1.421875 32.421875 -1.421875 
Q 20.0625 -1.421875 12.78125 6.34375 
Q 5.515625 14.109375 5.515625 27.296875 
Q 5.515625 40.671875 12.859375 48.328125 
Q 20.21875 56 33.015625 56 
Q 37.15625 56 41.109375 55.140625 
Q 45.0625 54.296875 48.78125 52.59375 
z
" id="DejaVuSans-99"/>
      <path d="M 2.984375 54.6875 
L 12.5 54.6875 
L 29.59375 8.796875 
L 46.6875 54.6875 
L 56.203125 54.6875 
L 35.6875 0 
L 23.484375 0 
z
" id="DejaVuSans-118"/>
      <path d="M 56.203125 29.59375 
L 56.203125 25.203125 
L 14.890625 25.203125 
Q 15.484375 15.921875 20.484375 11.0625 
Q 25.484375 6.203125 34.421875 6.203125 
Q 39.59375 6.203125 44.453125 7.46875 
Q 49.3125 8.734375 54.109375 11.28125 
L 54.109375 2.78125 
Q 49.265625 0.734375 44.1875 -0.34375 
Q 39.109375 -1.421875 33.890625 -1.421875 
Q 20.796875 -1.421875 13.15625 6.1875 
Q 5.515625 13.8125 5.515625 26.8125 
Q 5.515625 40.234375 12.765625 48.109375 
Q 20.015625 56 32.328125 56 
Q 43.359375 56 49.78125 48.890625 
Q 56.203125 41.796875 56.203125 29.59375 
z
M 47.21875 32.234375 
Q 47.125 39.59375 43.09375 43.984375 
Q 39.0625 48.390625 32.421875 48.390625 
Q 24.90625 48.390625 20.390625 44.140625 
Q 15.875 39.890625 15.1875 32.171875 
z
M 38.578125 79.984375 
L 48.296875 79.984375 
L 32.375 61.625 
L 24.90625 61.625 
z
" id="DejaVuSans-233"/>
      <path d="M 37.109375 75.984375 
L 37.109375 68.5 
L 28.515625 68.5 
Q 23.6875 68.5 21.796875 66.546875 
Q 19.921875 64.59375 19.921875 59.515625 
L 19.921875 54.6875 
L 34.71875 54.6875 
L 34.71875 47.703125 
L 19.921875 47.703125 
L 19.921875 0 
L 10.890625 0 
L 10.890625 47.703125 
L 2.296875 47.703125 
L 2.296875 54.6875 
L 10.890625 54.6875 
L 10.890625 58.5 
Q 10.890625 67.625 15.140625 71.796875 
Q 19.390625 75.984375 28.609375 75.984375 
z
" id="DejaVuSans-102"/>
     </defs>
     <use xlink:href="#DejaVuSans-86"/>
     <use x="60.658203" xlink:href="#DejaVuSans-111"/>
     <use x="121.839844" xlink:href="#DejaVuSans-105"/>
     <use x="149.623047" xlink:href="#DejaVuSans-101"/>
     <use x="211.146484" xlink:href="#DejaVuSans-32"/>
     <use x="242.933594" xlink:href="#DejaVuSans-114"/>
     <use x="281.796875" xlink:href="#DejaVuSans-101"/>
     <use x="343.320312" xlink:href="#DejaVuSans-99"/>
     <use x="398.300781" xlink:href="#DejaVuSans-116"/>
     <use x="437.509766" xlink:href="#DejaVuSans-105"/>
     <use x="465.292969" xlink:href="#DejaVuSans-108"/>
     <use x="493.076172" xlink:href="#DejaVuSans-105"/>
     <use x="520.859375" xlink:href="#DejaVuSans-103"/>
     <use x="584.335938" xlink:href="#DejaVuSans-110"/>
     <use x="647.714844" xlink:href="#DejaVuSans-101"/>
     <use x="709.238281" xlink:href="#DejaVuSans-32"/>
     <use x="741.025391" xlink:href="#DejaVuSans-97"/>
     <use x="802.304688" xlink:href="#DejaVuSans-118"/>
     <use x="861.484375" xlink:href="#DejaVuSans-101"/>
     <use x="923.007812" xlink:href="#DejaVuSans-99"/>
     <use x="977.988281" xlink:href="#DejaVuSans-32"/>
     <use x="1009.775391" xlink:href="#DejaVuSans-100"/>
     <use x="1073.251953" xlink:href="#DejaVuSans-233"/>
     <use x="1134.775391" xlink:href="#DejaVuSans-102"/>
     <use x="1169.980469" xlink:href="#DejaVuSans-97"/>
     <use x="1231.259766" xlink:href="#DejaVuSans-117"/>
     <use x="1294.638672" xlink:href="#DejaVuSans-116"/>
     <use x="1333.847656" xlink:href="#DejaVuSans-32"/>
     <use x="1365.634766" xlink:href="#DejaVuSans-100"/>
     <use x="1429.111328" xlink:href="#DejaVuSans-101"/>
     <use x="1490.634766" xlink:href="#DejaVuSans-32"/>
     <use x="1522.421875" xlink:href="#DejaVuSans-100"/>
     <use x="1585.898438" xlink:href="#DejaVuSans-114"/>
     <use x="1624.761719" xlink:href="#DejaVuSans-101"/>
     <use x="1686.285156" xlink:href="#DejaVuSans-115"/>
     <use x="1738.384766" xlink:href="#DejaVuSans-115"/>
     <use x="1790.484375" xlink:href="#DejaVuSans-97"/>
     <use x="1851.763672" xlink:href="#DejaVuSans-103"/>
     <use x="1915.240234" xlink:href="#DejaVuSans-101"/>
    </g>
   </g>
  </g>
 </g>
 <defs>
  <clipPath id="p583a02df01">
   <rect height="217.44" width="334.8" x="54" y="34.56"/>
  </clipPath>
 </defs>
</svg>
