<?xml version="1.0" encoding="utf-8" standalone="no"?>
<!DOCTYPE svg PUBLIC "-//W3C//DTD SVG 1.1//EN"
  "http://www.w3.org/Graphics/SVG/1.1/DTD/svg11.dtd">
<!-- Created with matplotlib (https://matplotlib.org/) -->
<svg height="288pt" version="1.1" viewBox="0 0 432 288" width="432pt" xmlns="http://www.w3.org/2000/svg" xmlns:xlink="http://www.w3.org/1999/xlink">
 <metadata>
  <rdf:RDF xmlns:cc="http://creativecommons.org/ns#" xmlns:dc="http://purl.org/dc/elements/1.1/" xmlns:rdf="http://www.w3.org/1999/02/22-rdf-syntax-ns#">
   <cc:Work>
    <dc:type rdf:resource="http://purl.org/dc/dcmitype/StillImage"/>
    <dc:date>2021-03-25T21:58:07.621341</dc:date>
    <dc:format>image/svg+xml</dc:format>
    <dc:creator>
     <cc:Agent>
      <dc:title>Matplotlib v3.3.2, https://matplotlib.org/</dc:title>
     </cc:Agent>
    </dc:creator>
   </cc:Work>
  </rdf:RDF>
 </metadata>
 <defs>
  <style type="text/css">*{stroke-linecap:butt;stroke-linejoin:round;}</style>
 </defs>
 <g id="figure_1">
  <g id="patch_1">
   <path d="M 0 288 
L 432 288 
L 432 0 
L 0 0 
z
" style="fill:#ffffff;"/>
  </g>
  <g id="axes_1">
   <g id="patch_2">
    <path d="M 54 252 
L 388.8 252 
L 388.8 34.56 
L 54 34.56 
z
" style="fill:#ffffff;"/>
   </g>
   <g id="matplotlib.axis_1">
    <g id="xtick_1">
     <g id="line2d_1">
      <path clip-path="url(#pffa653fa26)" d="M 54 252 
L 54 34.56 
" style="fill:none;stroke:#b0b0b0;stroke-linecap:square;stroke-width:0.8;"/>
     </g>
     <g id="line2d_2">
      <defs>
       <path d="M 0 0 
L 0 3.5 
" id="mfaecf37cdf" style="stroke:#000000;stroke-width:0.8;"/>
      </defs>
      <g>
       <use style="stroke:#000000;stroke-width:0.8;" x="54" xlink:href="#mfaecf37cdf" y="252"/>
      </g>
     </g>
     <g id="text_1">
      <!-- 0 -->
      <g transform="translate(50.81875 266.598437)scale(0.1 -0.1)">
       <defs>
        <path d="M 31.78125 66.40625 
Q 24.171875 66.40625 20.328125 58.90625 
Q 16.5 51.421875 16.5 36.375 
Q 16.5 21.390625 20.328125 13.890625 
Q 24.171875 6.390625 31.78125 6.390625 
Q 39.453125 6.390625 43.28125 13.890625 
Q 47.125 21.390625 47.125 36.375 
Q 47.125 51.421875 43.28125 58.90625 
Q 39.453125 66.40625 31.78125 66.40625 
z
M 31.78125 74.21875 
Q 44.046875 74.21875 50.515625 64.515625 
Q 56.984375 54.828125 56.984375 36.375 
Q 56.984375 17.96875 50.515625 8.265625 
Q 44.046875 -1.421875 31.78125 -1.421875 
Q 19.53125 -1.421875 13.0625 8.265625 
Q 6.59375 17.96875 6.59375 36.375 
Q 6.59375 54.828125 13.0625 64.515625 
Q 19.53125 74.21875 31.78125 74.21875 
z
" id="DejaVuSans-48"/>
       </defs>
       <use xlink:href="#DejaVuSans-48"/>
      </g>
     </g>
    </g>
    <g id="xtick_2">
     <g id="line2d_3">
      <path clip-path="url(#pffa653fa26)" d="M 120.96 252 
L 120.96 34.56 
" style="fill:none;stroke:#b0b0b0;stroke-linecap:square;stroke-width:0.8;"/>
     </g>
     <g id="line2d_4">
      <g>
       <use style="stroke:#000000;stroke-width:0.8;" x="120.96" xlink:href="#mfaecf37cdf" y="252"/>
      </g>
     </g>
     <g id="text_2">
      <!-- 2 -->
      <g transform="translate(117.77875 266.598437)scale(0.1 -0.1)">
       <defs>
        <path d="M 19.1875 8.296875 
L 53.609375 8.296875 
L 53.609375 0 
L 7.328125 0 
L 7.328125 8.296875 
Q 12.9375 14.109375 22.625 23.890625 
Q 32.328125 33.6875 34.8125 36.53125 
Q 39.546875 41.84375 41.421875 45.53125 
Q 43.3125 49.21875 43.3125 52.78125 
Q 43.3125 58.59375 39.234375 62.25 
Q 35.15625 65.921875 28.609375 65.921875 
Q 23.96875 65.921875 18.8125 64.3125 
Q 13.671875 62.703125 7.8125 59.421875 
L 7.8125 69.390625 
Q 13.765625 71.78125 18.9375 73 
Q 24.125 74.21875 28.421875 74.21875 
Q 39.75 74.21875 46.484375 68.546875 
Q 53.21875 62.890625 53.21875 53.421875 
Q 53.21875 48.921875 51.53125 44.890625 
Q 49.859375 40.875 45.40625 35.40625 
Q 44.1875 33.984375 37.640625 27.21875 
Q 31.109375 20.453125 19.1875 8.296875 
z
" id="DejaVuSans-50"/>
       </defs>
       <use xlink:href="#DejaVuSans-50"/>
      </g>
     </g>
    </g>
    <g id="xtick_3">
     <g id="line2d_5">
      <path clip-path="url(#pffa653fa26)" d="M 187.92 252 
L 187.92 34.56 
" style="fill:none;stroke:#b0b0b0;stroke-linecap:square;stroke-width:0.8;"/>
     </g>
     <g id="line2d_6">
      <g>
       <use style="stroke:#000000;stroke-width:0.8;" x="187.92" xlink:href="#mfaecf37cdf" y="252"/>
      </g>
     </g>
     <g id="text_3">
      <!-- 4 -->
      <g transform="translate(184.73875 266.598437)scale(0.1 -0.1)">
       <defs>
        <path d="M 37.796875 64.3125 
L 12.890625 25.390625 
L 37.796875 25.390625 
z
M 35.203125 72.90625 
L 47.609375 72.90625 
L 47.609375 25.390625 
L 58.015625 25.390625 
L 58.015625 17.1875 
L 47.609375 17.1875 
L 47.609375 0 
L 37.796875 0 
L 37.796875 17.1875 
L 4.890625 17.1875 
L 4.890625 26.703125 
z
" id="DejaVuSans-52"/>
       </defs>
       <use xlink:href="#DejaVuSans-52"/>
      </g>
     </g>
    </g>
    <g id="xtick_4">
     <g id="line2d_7">
      <path clip-path="url(#pffa653fa26)" d="M 254.88 252 
L 254.88 34.56 
" style="fill:none;stroke:#b0b0b0;stroke-linecap:square;stroke-width:0.8;"/>
     </g>
     <g id="line2d_8">
      <g>
       <use style="stroke:#000000;stroke-width:0.8;" x="254.88" xlink:href="#mfaecf37cdf" y="252"/>
      </g>
     </g>
     <g id="text_4">
      <!-- 6 -->
      <g transform="translate(251.69875 266.598437)scale(0.1 -0.1)">
       <defs>
        <path d="M 33.015625 40.375 
Q 26.375 40.375 22.484375 35.828125 
Q 18.609375 31.296875 18.609375 23.390625 
Q 18.609375 15.53125 22.484375 10.953125 
Q 26.375 6.390625 33.015625 6.390625 
Q 39.65625 6.390625 43.53125 10.953125 
Q 47.40625 15.53125 47.40625 23.390625 
Q 47.40625 31.296875 43.53125 35.828125 
Q 39.65625 40.375 33.015625 40.375 
z
M 52.59375 71.296875 
L 52.59375 62.3125 
Q 48.875 64.0625 45.09375 64.984375 
Q 41.3125 65.921875 37.59375 65.921875 
Q 27.828125 65.921875 22.671875 59.328125 
Q 17.53125 52.734375 16.796875 39.40625 
Q 19.671875 43.65625 24.015625 45.921875 
Q 28.375 48.1875 33.59375 48.1875 
Q 44.578125 48.1875 50.953125 41.515625 
Q 57.328125 34.859375 57.328125 23.390625 
Q 57.328125 12.15625 50.6875 5.359375 
Q 44.046875 -1.421875 33.015625 -1.421875 
Q 20.359375 -1.421875 13.671875 8.265625 
Q 6.984375 17.96875 6.984375 36.375 
Q 6.984375 53.65625 15.1875 63.9375 
Q 23.390625 74.21875 37.203125 74.21875 
Q 40.921875 74.21875 44.703125 73.484375 
Q 48.484375 72.75 52.59375 71.296875 
z
" id="DejaVuSans-54"/>
       </defs>
       <use xlink:href="#DejaVuSans-54"/>
      </g>
     </g>
    </g>
    <g id="xtick_5">
     <g id="line2d_9">
      <path clip-path="url(#pffa653fa26)" d="M 321.84 252 
L 321.84 34.56 
" style="fill:none;stroke:#b0b0b0;stroke-linecap:square;stroke-width:0.8;"/>
     </g>
     <g id="line2d_10">
      <g>
       <use style="stroke:#000000;stroke-width:0.8;" x="321.84" xlink:href="#mfaecf37cdf" y="252"/>
      </g>
     </g>
     <g id="text_5">
      <!-- 8 -->
      <g transform="translate(318.65875 266.598437)scale(0.1 -0.1)">
       <defs>
        <path d="M 31.78125 34.625 
Q 24.75 34.625 20.71875 30.859375 
Q 16.703125 27.09375 16.703125 20.515625 
Q 16.703125 13.921875 20.71875 10.15625 
Q 24.75 6.390625 31.78125 6.390625 
Q 38.8125 6.390625 42.859375 10.171875 
Q 46.921875 13.96875 46.921875 20.515625 
Q 46.921875 27.09375 42.890625 30.859375 
Q 38.875 34.625 31.78125 34.625 
z
M 21.921875 38.8125 
Q 15.578125 40.375 12.03125 44.71875 
Q 8.5 49.078125 8.5 55.328125 
Q 8.5 64.0625 14.71875 69.140625 
Q 20.953125 74.21875 31.78125 74.21875 
Q 42.671875 74.21875 48.875 69.140625 
Q 55.078125 64.0625 55.078125 55.328125 
Q 55.078125 49.078125 51.53125 44.71875 
Q 48 40.375 41.703125 38.8125 
Q 48.828125 37.15625 52.796875 32.3125 
Q 56.78125 27.484375 56.78125 20.515625 
Q 56.78125 9.90625 50.3125 4.234375 
Q 43.84375 -1.421875 31.78125 -1.421875 
Q 19.734375 -1.421875 13.25 4.234375 
Q 6.78125 9.90625 6.78125 20.515625 
Q 6.78125 27.484375 10.78125 32.3125 
Q 14.796875 37.15625 21.921875 38.8125 
z
M 18.3125 54.390625 
Q 18.3125 48.734375 21.84375 45.5625 
Q 25.390625 42.390625 31.78125 42.390625 
Q 38.140625 42.390625 41.71875 45.5625 
Q 45.3125 48.734375 45.3125 54.390625 
Q 45.3125 60.0625 41.71875 63.234375 
Q 38.140625 66.40625 31.78125 66.40625 
Q 25.390625 66.40625 21.84375 63.234375 
Q 18.3125 60.0625 18.3125 54.390625 
z
" id="DejaVuSans-56"/>
       </defs>
       <use xlink:href="#DejaVuSans-56"/>
      </g>
     </g>
    </g>
    <g id="xtick_6">
     <g id="line2d_11">
      <path clip-path="url(#pffa653fa26)" d="M 388.8 252 
L 388.8 34.56 
" style="fill:none;stroke:#b0b0b0;stroke-linecap:square;stroke-width:0.8;"/>
     </g>
     <g id="line2d_12">
      <g>
       <use style="stroke:#000000;stroke-width:0.8;" x="388.8" xlink:href="#mfaecf37cdf" y="252"/>
      </g>
     </g>
     <g id="text_6">
      <!-- 10 -->
      <g transform="translate(382.4375 266.598437)scale(0.1 -0.1)">
       <defs>
        <path d="M 12.40625 8.296875 
L 28.515625 8.296875 
L 28.515625 63.921875 
L 10.984375 60.40625 
L 10.984375 69.390625 
L 28.421875 72.90625 
L 38.28125 72.90625 
L 38.28125 8.296875 
L 54.390625 8.296875 
L 54.390625 0 
L 12.40625 0 
z
" id="DejaVuSans-49"/>
       </defs>
       <use xlink:href="#DejaVuSans-49"/>
       <use x="63.623047" xlink:href="#DejaVuSans-48"/>
      </g>
     </g>
    </g>
    <g id="text_7">
     <!-- temps [s] -->
     <g transform="translate(197.61875 280.276563)scale(0.1 -0.1)">
      <defs>
       <path d="M 18.3125 70.21875 
L 18.3125 54.6875 
L 36.8125 54.6875 
L 36.8125 47.703125 
L 18.3125 47.703125 
L 18.3125 18.015625 
Q 18.3125 11.328125 20.140625 9.421875 
Q 21.96875 7.515625 27.59375 7.515625 
L 36.8125 7.515625 
L 36.8125 0 
L 27.59375 0 
Q 17.1875 0 13.234375 3.875 
Q 9.28125 7.765625 9.28125 18.015625 
L 9.28125 47.703125 
L 2.6875 47.703125 
L 2.6875 54.6875 
L 9.28125 54.6875 
L 9.28125 70.21875 
z
" id="DejaVuSans-116"/>
       <path d="M 56.203125 29.59375 
L 56.203125 25.203125 
L 14.890625 25.203125 
Q 15.484375 15.921875 20.484375 11.0625 
Q 25.484375 6.203125 34.421875 6.203125 
Q 39.59375 6.203125 44.453125 7.46875 
Q 49.3125 8.734375 54.109375 11.28125 
L 54.109375 2.78125 
Q 49.265625 0.734375 44.1875 -0.34375 
Q 39.109375 -1.421875 33.890625 -1.421875 
Q 20.796875 -1.421875 13.15625 6.1875 
Q 5.515625 13.8125 5.515625 26.8125 
Q 5.515625 40.234375 12.765625 48.109375 
Q 20.015625 56 32.328125 56 
Q 43.359375 56 49.78125 48.890625 
Q 56.203125 41.796875 56.203125 29.59375 
z
M 47.21875 32.234375 
Q 47.125 39.59375 43.09375 43.984375 
Q 39.0625 48.390625 32.421875 48.390625 
Q 24.90625 48.390625 20.390625 44.140625 
Q 15.875 39.890625 15.1875 32.171875 
z
" id="DejaVuSans-101"/>
       <path d="M 52 44.1875 
Q 55.375 50.25 60.0625 53.125 
Q 64.75 56 71.09375 56 
Q 79.640625 56 84.28125 50.015625 
Q 88.921875 44.046875 88.921875 33.015625 
L 88.921875 0 
L 79.890625 0 
L 79.890625 32.71875 
Q 79.890625 40.578125 77.09375 44.375 
Q 74.3125 48.1875 68.609375 48.1875 
Q 61.625 48.1875 57.5625 43.546875 
Q 53.515625 38.921875 53.515625 30.90625 
L 53.515625 0 
L 44.484375 0 
L 44.484375 32.71875 
Q 44.484375 40.625 41.703125 44.40625 
Q 38.921875 48.1875 33.109375 48.1875 
Q 26.21875 48.1875 22.15625 43.53125 
Q 18.109375 38.875 18.109375 30.90625 
L 18.109375 0 
L 9.078125 0 
L 9.078125 54.6875 
L 18.109375 54.6875 
L 18.109375 46.1875 
Q 21.1875 51.21875 25.484375 53.609375 
Q 29.78125 56 35.6875 56 
Q 41.65625 56 45.828125 52.96875 
Q 50 49.953125 52 44.1875 
z
" id="DejaVuSans-109"/>
       <path d="M 18.109375 8.203125 
L 18.109375 -20.796875 
L 9.078125 -20.796875 
L 9.078125 54.6875 
L 18.109375 54.6875 
L 18.109375 46.390625 
Q 20.953125 51.265625 25.265625 53.625 
Q 29.59375 56 35.59375 56 
Q 45.5625 56 51.78125 48.09375 
Q 58.015625 40.1875 58.015625 27.296875 
Q 58.015625 14.40625 51.78125 6.484375 
Q 45.5625 -1.421875 35.59375 -1.421875 
Q 29.59375 -1.421875 25.265625 0.953125 
Q 20.953125 3.328125 18.109375 8.203125 
z
M 48.6875 27.296875 
Q 48.6875 37.203125 44.609375 42.84375 
Q 40.53125 48.484375 33.40625 48.484375 
Q 26.265625 48.484375 22.1875 42.84375 
Q 18.109375 37.203125 18.109375 27.296875 
Q 18.109375 17.390625 22.1875 11.75 
Q 26.265625 6.109375 33.40625 6.109375 
Q 40.53125 6.109375 44.609375 11.75 
Q 48.6875 17.390625 48.6875 27.296875 
z
" id="DejaVuSans-112"/>
       <path d="M 44.28125 53.078125 
L 44.28125 44.578125 
Q 40.484375 46.53125 36.375 47.5 
Q 32.28125 48.484375 27.875 48.484375 
Q 21.1875 48.484375 17.84375 46.4375 
Q 14.5 44.390625 14.5 40.28125 
Q 14.5 37.15625 16.890625 35.375 
Q 19.28125 33.59375 26.515625 31.984375 
L 29.59375 31.296875 
Q 39.15625 29.25 43.1875 25.515625 
Q 47.21875 21.78125 47.21875 15.09375 
Q 47.21875 7.46875 41.1875 3.015625 
Q 35.15625 -1.421875 24.609375 -1.421875 
Q 20.21875 -1.421875 15.453125 -0.5625 
Q 10.6875 0.296875 5.421875 2 
L 5.421875 11.28125 
Q 10.40625 8.6875 15.234375 7.390625 
Q 20.0625 6.109375 24.8125 6.109375 
Q 31.15625 6.109375 34.5625 8.28125 
Q 37.984375 10.453125 37.984375 14.40625 
Q 37.984375 18.0625 35.515625 20.015625 
Q 33.0625 21.96875 24.703125 23.78125 
L 21.578125 24.515625 
Q 13.234375 26.265625 9.515625 29.90625 
Q 5.8125 33.546875 5.8125 39.890625 
Q 5.8125 47.609375 11.28125 51.796875 
Q 16.75 56 26.8125 56 
Q 31.78125 56 36.171875 55.265625 
Q 40.578125 54.546875 44.28125 53.078125 
z
" id="DejaVuSans-115"/>
       <path id="DejaVuSans-32"/>
       <path d="M 8.59375 75.984375 
L 29.296875 75.984375 
L 29.296875 69 
L 17.578125 69 
L 17.578125 -6.203125 
L 29.296875 -6.203125 
L 29.296875 -13.1875 
L 8.59375 -13.1875 
z
" id="DejaVuSans-91"/>
       <path d="M 30.421875 75.984375 
L 30.421875 -13.1875 
L 9.71875 -13.1875 
L 9.71875 -6.203125 
L 21.390625 -6.203125 
L 21.390625 69 
L 9.71875 69 
L 9.71875 75.984375 
z
" id="DejaVuSans-93"/>
      </defs>
      <use xlink:href="#DejaVuSans-116"/>
      <use x="39.208984" xlink:href="#DejaVuSans-101"/>
      <use x="100.732422" xlink:href="#DejaVuSans-109"/>
      <use x="198.144531" xlink:href="#DejaVuSans-112"/>
      <use x="261.621094" xlink:href="#DejaVuSans-115"/>
      <use x="313.720703" xlink:href="#DejaVuSans-32"/>
      <use x="345.507812" xlink:href="#DejaVuSans-91"/>
      <use x="384.521484" xlink:href="#DejaVuSans-115"/>
      <use x="436.621094" xlink:href="#DejaVuSans-93"/>
     </g>
    </g>
   </g>
   <g id="matplotlib.axis_2">
    <g id="ytick_1">
     <g id="line2d_13">
      <path clip-path="url(#pffa653fa26)" d="M 54 244.200046 
L 388.8 244.200046 
" style="fill:none;stroke:#b0b0b0;stroke-linecap:square;stroke-width:0.8;"/>
     </g>
     <g id="line2d_14">
      <defs>
       <path d="M 0 0 
L -3.5 0 
" id="m20a2d4541c" style="stroke:#000000;stroke-width:0.8;"/>
      </defs>
      <g>
       <use style="stroke:#000000;stroke-width:0.8;" x="54" xlink:href="#m20a2d4541c" y="244.200046"/>
      </g>
     </g>
     <g id="text_8">
      <!-- −60 -->
      <g transform="translate(25.895312 247.999265)scale(0.1 -0.1)">
       <defs>
        <path d="M 10.59375 35.5 
L 73.1875 35.5 
L 73.1875 27.203125 
L 10.59375 27.203125 
z
" id="DejaVuSans-8722"/>
       </defs>
       <use xlink:href="#DejaVuSans-8722"/>
       <use x="83.789062" xlink:href="#DejaVuSans-54"/>
       <use x="147.412109" xlink:href="#DejaVuSans-48"/>
      </g>
     </g>
    </g>
    <g id="ytick_2">
     <g id="line2d_15">
      <path clip-path="url(#pffa653fa26)" d="M 54 207.920552 
L 388.8 207.920552 
" style="fill:none;stroke:#b0b0b0;stroke-linecap:square;stroke-width:0.8;"/>
     </g>
     <g id="line2d_16">
      <g>
       <use style="stroke:#000000;stroke-width:0.8;" x="54" xlink:href="#m20a2d4541c" y="207.920552"/>
      </g>
     </g>
     <g id="text_9">
      <!-- −40 -->
      <g transform="translate(25.895312 211.71977)scale(0.1 -0.1)">
       <use xlink:href="#DejaVuSans-8722"/>
       <use x="83.789062" xlink:href="#DejaVuSans-52"/>
       <use x="147.412109" xlink:href="#DejaVuSans-48"/>
      </g>
     </g>
    </g>
    <g id="ytick_3">
     <g id="line2d_17">
      <path clip-path="url(#pffa653fa26)" d="M 54 171.641058 
L 388.8 171.641058 
" style="fill:none;stroke:#b0b0b0;stroke-linecap:square;stroke-width:0.8;"/>
     </g>
     <g id="line2d_18">
      <g>
       <use style="stroke:#000000;stroke-width:0.8;" x="54" xlink:href="#m20a2d4541c" y="171.641058"/>
      </g>
     </g>
     <g id="text_10">
      <!-- −20 -->
      <g transform="translate(25.895312 175.440276)scale(0.1 -0.1)">
       <use xlink:href="#DejaVuSans-8722"/>
       <use x="83.789062" xlink:href="#DejaVuSans-50"/>
       <use x="147.412109" xlink:href="#DejaVuSans-48"/>
      </g>
     </g>
    </g>
    <g id="ytick_4">
     <g id="line2d_19">
      <path clip-path="url(#pffa653fa26)" d="M 54 135.361563 
L 388.8 135.361563 
" style="fill:none;stroke:#b0b0b0;stroke-linecap:square;stroke-width:0.8;"/>
     </g>
     <g id="line2d_20">
      <g>
       <use style="stroke:#000000;stroke-width:0.8;" x="54" xlink:href="#m20a2d4541c" y="135.361563"/>
      </g>
     </g>
     <g id="text_11">
      <!-- 0 -->
      <g transform="translate(40.6375 139.160782)scale(0.1 -0.1)">
       <use xlink:href="#DejaVuSans-48"/>
      </g>
     </g>
    </g>
    <g id="ytick_5">
     <g id="line2d_21">
      <path clip-path="url(#pffa653fa26)" d="M 54 99.082069 
L 388.8 99.082069 
" style="fill:none;stroke:#b0b0b0;stroke-linecap:square;stroke-width:0.8;"/>
     </g>
     <g id="line2d_22">
      <g>
       <use style="stroke:#000000;stroke-width:0.8;" x="54" xlink:href="#m20a2d4541c" y="99.082069"/>
      </g>
     </g>
     <g id="text_12">
      <!-- 20 -->
      <g transform="translate(34.275 102.881288)scale(0.1 -0.1)">
       <use xlink:href="#DejaVuSans-50"/>
       <use x="63.623047" xlink:href="#DejaVuSans-48"/>
      </g>
     </g>
    </g>
    <g id="ytick_6">
     <g id="line2d_23">
      <path clip-path="url(#pffa653fa26)" d="M 54 62.802575 
L 388.8 62.802575 
" style="fill:none;stroke:#b0b0b0;stroke-linecap:square;stroke-width:0.8;"/>
     </g>
     <g id="line2d_24">
      <g>
       <use style="stroke:#000000;stroke-width:0.8;" x="54" xlink:href="#m20a2d4541c" y="62.802575"/>
      </g>
     </g>
     <g id="text_13">
      <!-- 40 -->
      <g transform="translate(34.275 66.601794)scale(0.1 -0.1)">
       <use xlink:href="#DejaVuSans-52"/>
       <use x="63.623047" xlink:href="#DejaVuSans-48"/>
      </g>
     </g>
    </g>
    <g id="text_14">
     <!-- mouvement latéral de la caisse [mm] -->
     <g transform="translate(19.815625 237.268281)rotate(-90)scale(0.1 -0.1)">
      <defs>
       <path d="M 30.609375 48.390625 
Q 23.390625 48.390625 19.1875 42.75 
Q 14.984375 37.109375 14.984375 27.296875 
Q 14.984375 17.484375 19.15625 11.84375 
Q 23.34375 6.203125 30.609375 6.203125 
Q 37.796875 6.203125 41.984375 11.859375 
Q 46.1875 17.53125 46.1875 27.296875 
Q 46.1875 37.015625 41.984375 42.703125 
Q 37.796875 48.390625 30.609375 48.390625 
z
M 30.609375 56 
Q 42.328125 56 49.015625 48.375 
Q 55.71875 40.765625 55.71875 27.296875 
Q 55.71875 13.875 49.015625 6.21875 
Q 42.328125 -1.421875 30.609375 -1.421875 
Q 18.84375 -1.421875 12.171875 6.21875 
Q 5.515625 13.875 5.515625 27.296875 
Q 5.515625 40.765625 12.171875 48.375 
Q 18.84375 56 30.609375 56 
z
" id="DejaVuSans-111"/>
       <path d="M 8.5 21.578125 
L 8.5 54.6875 
L 17.484375 54.6875 
L 17.484375 21.921875 
Q 17.484375 14.15625 20.5 10.265625 
Q 23.53125 6.390625 29.59375 6.390625 
Q 36.859375 6.390625 41.078125 11.03125 
Q 45.3125 15.671875 45.3125 23.6875 
L 45.3125 54.6875 
L 54.296875 54.6875 
L 54.296875 0 
L 45.3125 0 
L 45.3125 8.40625 
Q 42.046875 3.421875 37.71875 1 
Q 33.40625 -1.421875 27.6875 -1.421875 
Q 18.265625 -1.421875 13.375 4.4375 
Q 8.5 10.296875 8.5 21.578125 
z
M 31.109375 56 
z
" id="DejaVuSans-117"/>
       <path d="M 2.984375 54.6875 
L 12.5 54.6875 
L 29.59375 8.796875 
L 46.6875 54.6875 
L 56.203125 54.6875 
L 35.6875 0 
L 23.484375 0 
z
" id="DejaVuSans-118"/>
       <path d="M 54.890625 33.015625 
L 54.890625 0 
L 45.90625 0 
L 45.90625 32.71875 
Q 45.90625 40.484375 42.875 44.328125 
Q 39.84375 48.1875 33.796875 48.1875 
Q 26.515625 48.1875 22.3125 43.546875 
Q 18.109375 38.921875 18.109375 30.90625 
L 18.109375 0 
L 9.078125 0 
L 9.078125 54.6875 
L 18.109375 54.6875 
L 18.109375 46.1875 
Q 21.34375 51.125 25.703125 53.5625 
Q 30.078125 56 35.796875 56 
Q 45.21875 56 50.046875 50.171875 
Q 54.890625 44.34375 54.890625 33.015625 
z
" id="DejaVuSans-110"/>
       <path d="M 9.421875 75.984375 
L 18.40625 75.984375 
L 18.40625 0 
L 9.421875 0 
z
" id="DejaVuSans-108"/>
       <path d="M 34.28125 27.484375 
Q 23.390625 27.484375 19.1875 25 
Q 14.984375 22.515625 14.984375 16.5 
Q 14.984375 11.71875 18.140625 8.90625 
Q 21.296875 6.109375 26.703125 6.109375 
Q 34.1875 6.109375 38.703125 11.40625 
Q 43.21875 16.703125 43.21875 25.484375 
L 43.21875 27.484375 
z
M 52.203125 31.203125 
L 52.203125 0 
L 43.21875 0 
L 43.21875 8.296875 
Q 40.140625 3.328125 35.546875 0.953125 
Q 30.953125 -1.421875 24.3125 -1.421875 
Q 15.921875 -1.421875 10.953125 3.296875 
Q 6 8.015625 6 15.921875 
Q 6 25.140625 12.171875 29.828125 
Q 18.359375 34.515625 30.609375 34.515625 
L 43.21875 34.515625 
L 43.21875 35.40625 
Q 43.21875 41.609375 39.140625 45 
Q 35.0625 48.390625 27.6875 48.390625 
Q 23 48.390625 18.546875 47.265625 
Q 14.109375 46.140625 10.015625 43.890625 
L 10.015625 52.203125 
Q 14.9375 54.109375 19.578125 55.046875 
Q 24.21875 56 28.609375 56 
Q 40.484375 56 46.34375 49.84375 
Q 52.203125 43.703125 52.203125 31.203125 
z
" id="DejaVuSans-97"/>
       <path d="M 56.203125 29.59375 
L 56.203125 25.203125 
L 14.890625 25.203125 
Q 15.484375 15.921875 20.484375 11.0625 
Q 25.484375 6.203125 34.421875 6.203125 
Q 39.59375 6.203125 44.453125 7.46875 
Q 49.3125 8.734375 54.109375 11.28125 
L 54.109375 2.78125 
Q 49.265625 0.734375 44.1875 -0.34375 
Q 39.109375 -1.421875 33.890625 -1.421875 
Q 20.796875 -1.421875 13.15625 6.1875 
Q 5.515625 13.8125 5.515625 26.8125 
Q 5.515625 40.234375 12.765625 48.109375 
Q 20.015625 56 32.328125 56 
Q 43.359375 56 49.78125 48.890625 
Q 56.203125 41.796875 56.203125 29.59375 
z
M 47.21875 32.234375 
Q 47.125 39.59375 43.09375 43.984375 
Q 39.0625 48.390625 32.421875 48.390625 
Q 24.90625 48.390625 20.390625 44.140625 
Q 15.875 39.890625 15.1875 32.171875 
z
M 38.578125 79.984375 
L 48.296875 79.984375 
L 32.375 61.625 
L 24.90625 61.625 
z
" id="DejaVuSans-233"/>
       <path d="M 41.109375 46.296875 
Q 39.59375 47.171875 37.8125 47.578125 
Q 36.03125 48 33.890625 48 
Q 26.265625 48 22.1875 43.046875 
Q 18.109375 38.09375 18.109375 28.8125 
L 18.109375 0 
L 9.078125 0 
L 9.078125 54.6875 
L 18.109375 54.6875 
L 18.109375 46.1875 
Q 20.953125 51.171875 25.484375 53.578125 
Q 30.03125 56 36.53125 56 
Q 37.453125 56 38.578125 55.875 
Q 39.703125 55.765625 41.0625 55.515625 
z
" id="DejaVuSans-114"/>
       <path d="M 45.40625 46.390625 
L 45.40625 75.984375 
L 54.390625 75.984375 
L 54.390625 0 
L 45.40625 0 
L 45.40625 8.203125 
Q 42.578125 3.328125 38.25 0.953125 
Q 33.9375 -1.421875 27.875 -1.421875 
Q 17.96875 -1.421875 11.734375 6.484375 
Q 5.515625 14.40625 5.515625 27.296875 
Q 5.515625 40.1875 11.734375 48.09375 
Q 17.96875 56 27.875 56 
Q 33.9375 56 38.25 53.625 
Q 42.578125 51.265625 45.40625 46.390625 
z
M 14.796875 27.296875 
Q 14.796875 17.390625 18.875 11.75 
Q 22.953125 6.109375 30.078125 6.109375 
Q 37.203125 6.109375 41.296875 11.75 
Q 45.40625 17.390625 45.40625 27.296875 
Q 45.40625 37.203125 41.296875 42.84375 
Q 37.203125 48.484375 30.078125 48.484375 
Q 22.953125 48.484375 18.875 42.84375 
Q 14.796875 37.203125 14.796875 27.296875 
z
" id="DejaVuSans-100"/>
       <path d="M 48.78125 52.59375 
L 48.78125 44.1875 
Q 44.96875 46.296875 41.140625 47.34375 
Q 37.3125 48.390625 33.40625 48.390625 
Q 24.65625 48.390625 19.8125 42.84375 
Q 14.984375 37.3125 14.984375 27.296875 
Q 14.984375 17.28125 19.8125 11.734375 
Q 24.65625 6.203125 33.40625 6.203125 
Q 37.3125 6.203125 41.140625 7.25 
Q 44.96875 8.296875 48.78125 10.40625 
L 48.78125 2.09375 
Q 45.015625 0.34375 40.984375 -0.53125 
Q 36.96875 -1.421875 32.421875 -1.421875 
Q 20.0625 -1.421875 12.78125 6.34375 
Q 5.515625 14.109375 5.515625 27.296875 
Q 5.515625 40.671875 12.859375 48.328125 
Q 20.21875 56 33.015625 56 
Q 37.15625 56 41.109375 55.140625 
Q 45.0625 54.296875 48.78125 52.59375 
z
" id="DejaVuSans-99"/>
       <path d="M 9.421875 54.6875 
L 18.40625 54.6875 
L 18.40625 0 
L 9.421875 0 
z
M 9.421875 75.984375 
L 18.40625 75.984375 
L 18.40625 64.59375 
L 9.421875 64.59375 
z
" id="DejaVuSans-105"/>
      </defs>
      <use xlink:href="#DejaVuSans-109"/>
      <use x="97.412109" xlink:href="#DejaVuSans-111"/>
      <use x="158.59375" xlink:href="#DejaVuSans-117"/>
      <use x="221.972656" xlink:href="#DejaVuSans-118"/>
      <use x="281.152344" xlink:href="#DejaVuSans-101"/>
      <use x="342.675781" xlink:href="#DejaVuSans-109"/>
      <use x="440.087891" xlink:href="#DejaVuSans-101"/>
      <use x="501.611328" xlink:href="#DejaVuSans-110"/>
      <use x="564.990234" xlink:href="#DejaVuSans-116"/>
      <use x="604.199219" xlink:href="#DejaVuSans-32"/>
      <use x="635.986328" xlink:href="#DejaVuSans-108"/>
      <use x="663.769531" xlink:href="#DejaVuSans-97"/>
      <use x="725.048828" xlink:href="#DejaVuSans-116"/>
      <use x="764.257812" xlink:href="#DejaVuSans-233"/>
      <use x="825.78125" xlink:href="#DejaVuSans-114"/>
      <use x="866.894531" xlink:href="#DejaVuSans-97"/>
      <use x="928.173828" xlink:href="#DejaVuSans-108"/>
      <use x="955.957031" xlink:href="#DejaVuSans-32"/>
      <use x="987.744141" xlink:href="#DejaVuSans-100"/>
      <use x="1051.220703" xlink:href="#DejaVuSans-101"/>
      <use x="1112.744141" xlink:href="#DejaVuSans-32"/>
      <use x="1144.53125" xlink:href="#DejaVuSans-108"/>
      <use x="1172.314453" xlink:href="#DejaVuSans-97"/>
      <use x="1233.59375" xlink:href="#DejaVuSans-32"/>
      <use x="1265.380859" xlink:href="#DejaVuSans-99"/>
      <use x="1320.361328" xlink:href="#DejaVuSans-97"/>
      <use x="1381.640625" xlink:href="#DejaVuSans-105"/>
      <use x="1409.423828" xlink:href="#DejaVuSans-115"/>
      <use x="1461.523438" xlink:href="#DejaVuSans-115"/>
      <use x="1513.623047" xlink:href="#DejaVuSans-101"/>
      <use x="1575.146484" xlink:href="#DejaVuSans-32"/>
      <use x="1606.933594" xlink:href="#DejaVuSans-91"/>
      <use x="1645.947266" xlink:href="#DejaVuSans-109"/>
      <use x="1743.359375" xlink:href="#DejaVuSans-109"/>
      <use x="1840.771484" xlink:href="#DejaVuSans-93"/>
     </g>
    </g>
   </g>
   <g id="line2d_25">
    <path clip-path="url(#pffa653fa26)" d="M 54 135.361563 
L 87.51348 135.386928 
L 87.61392 136.192356 
L 87.9822 142.321684 
L 88.04916 142.167798 
L 88.4844 139.362194 
L 88.55136 139.461957 
L 88.9866 140.726728 
L 89.22096 142.262748 
L 89.58924 146.531462 
L 90.09144 155.10215 
L 90.89496 173.608481 
L 92.30112 205.615166 
L 93.74076 233.761167 
L 94.14252 237.923325 
L 94.41036 238.936043 
L 94.5108 238.923642 
L 94.64472 238.577492 
L 94.87908 237.105227 
L 95.21388 233.247106 
L 95.6826 224.744945 
L 96.25176 209.91213 
L 97.1892 177.815849 
L 98.0262 153.339537 
L 98.82972 129.081478 
L 99.83412 88.865258 
L 100.7046 58.729599 
L 101.2068 47.767796 
L 101.50812 44.772568 
L 101.64204 44.443636 
L 101.67552 44.459356 
L 101.77596 44.737271 
L 101.97684 46.271021 
L 102.31164 51.164663 
L 102.91428 64.171577 
L 103.81824 88.708217 
L 105.894 148.700914 
L 107.03232 175.044253 
L 107.43408 180.135014 
L 107.70192 181.452433 
L 107.80236 181.518078 
L 107.83584 181.489463 
L 107.96976 181.129002 
L 108.20412 179.593407 
L 108.53892 175.590967 
L 109.04112 166.455468 
L 110.54772 137.028998 
L 110.98296 132.963016 
L 111.28428 131.873479 
L 111.4182 131.871515 
L 111.55212 132.180369 
L 111.78648 133.501051 
L 112.0878 136.72823 
L 112.48956 143.743886 
L 113.05872 158.156889 
L 114.83316 206.173185 
L 116.4402 237.942708 
L 116.80848 241.476936 
L 117.04284 242.116364 
L 117.14328 241.980372 
L 117.31068 241.205682 
L 117.57852 238.592119 
L 117.9468 232.48687 
L 118.48248 219.264231 
L 119.25252 193.665691 
L 120.25692 161.370046 
L 121.39524 128.508036 
L 123.16968 68.738584 
L 123.57144 63.412944 
L 123.8058 62.44488 
L 123.90624 62.531052 
L 124.07364 63.333058 
L 124.34148 66.193835 
L 124.74324 73.428088 
L 125.37936 89.521385 
L 128.76084 182.458403 
L 129.26304 191.31951 
L 129.59784 193.983946 
L 129.76524 194.24694 
L 129.86568 194.067541 
L 130.03308 193.220531 
L 130.30092 190.493386 
L 130.6692 184.206277 
L 131.27184 169.279659 
L 132.61104 135.14776 
L 133.1802 126.509794 
L 133.61544 122.788996 
L 133.88328 121.873119 
L 134.0172 121.867816 
L 134.15112 122.19492 
L 134.352 123.354502 
L 134.65332 126.696627 
L 135.05508 134.162542 
L 135.62424 149.564718 
L 137.1978 194.682124 
L 138.77136 226.747306 
L 139.2066 232.130188 
L 139.47444 233.328785 
L 139.57488 233.312625 
L 139.7088 232.886982 
L 139.94316 231.046643 
L 140.27796 226.15876 
L 140.74668 215.509668 
L 141.41628 194.55838 
L 142.75548 151.429931 
L 143.86032 121.152024 
L 145.33344 74.779116 
L 145.7352 69.568751 
L 145.96956 68.547431 
L 146.07 68.568199 
L 146.20392 69.027173 
L 146.43828 71.005098 
L 146.77308 76.226502 
L 147.27528 88.132908 
L 148.14576 115.180359 
L 149.28408 149.542315 
L 151.15896 194.432161 
L 151.56072 199.428932 
L 151.79508 200.383107 
L 151.89552 200.344445 
L 152.02944 199.882648 
L 152.2638 197.971996 
L 152.5986 192.917756 
L 153.06732 181.960697 
L 155.24352 125.184718 
L 155.84616 117.251594 
L 156.24792 114.278258 
L 156.48228 113.795045 
L 156.58272 113.929488 
L 156.75012 114.649687 
L 157.01796 117.15903 
L 157.38624 123.345782 
L 157.88844 136.18087 
L 160.03116 196.8614 
L 161.60472 227.02135 
L 161.90604 228.905321 
L 162.00648 229.014412 
L 162.03996 228.991378 
L 162.17388 228.6004 
L 162.37476 227.12375 
L 162.67608 223.005114 
L 163.11132 213.551907 
L 163.74744 194.181655 
L 165.28752 145.026985 
L 166.3254 117.490816 
L 167.59764 79.714761 
L 167.96592 74.941222 
L 168.20028 73.822115 
L 168.30072 73.791152 
L 168.43464 74.169933 
L 168.63552 75.645016 
L 168.93684 79.836689 
L 169.37208 89.42848 
L 170.07516 110.587551 
L 171.54828 155.914474 
L 173.49012 200.796125 
L 173.82492 204.071674 
L 174.0258 204.583068 
L 174.12624 204.430263 
L 174.29364 203.579486 
L 174.56148 200.700017 
L 174.92976 193.882501 
L 175.49892 178.417639 
L 177.13944 131.002239 
L 177.90948 117.234417 
L 178.51212 109.600998 
L 178.84692 107.686555 
L 178.98084 107.589066 
L 179.11476 107.917228 
L 179.31564 109.242254 
L 179.61696 113.126577 
L 180.01872 121.584246 
L 180.62136 139.530112 
L 181.99404 181.760271 
L 183.46716 213.767818 
L 184.00284 222.802001 
L 184.30416 225.185826 
L 184.47156 225.488113 
L 184.572 225.306361 
L 184.7394 224.39538 
L 185.00724 221.396635 
L 185.37552 214.465579 
L 185.9112 199.782627 
L 188.22132 130.17205 
L 188.9244 110.15879 
L 189.82836 84.704397 
L 190.23012 79.076509 
L 190.49796 77.787826 
L 190.5984 77.802296 
L 190.73232 78.243197 
L 190.9332 79.81277 
L 191.23452 84.150997 
L 191.66976 93.987071 
L 192.37284 115.636571 
L 193.71204 157.535004 
L 195.6204 202.137978 
L 195.98868 206.637251 
L 196.22304 207.601889 
L 196.32348 207.554772 
L 196.4574 207.06646 
L 196.69176 205.058006 
L 197.02656 199.738576 
L 197.49528 188.226265 
L 198.43272 158.103443 
L 199.26972 134.490401 
L 200.07324 118.488505 
L 200.84328 106.494019 
L 201.21156 103.65586 
L 201.37896 103.378357 
L 201.4794 103.548667 
L 201.6468 104.411913 
L 201.91464 107.311006 
L 202.28292 114.181274 
L 202.8186 128.95197 
L 204.69348 185.068074 
L 206.46792 220.824373 
L 206.76924 222.886144 
L 206.90316 223.025478 
L 207.0036 222.808411 
L 207.171 221.83311 
L 207.43884 218.716973 
L 207.8406 210.81156 
L 208.40976 194.510292 
L 210.31812 135.536597 
L 211.22208 112.431428 
L 212.193 86.660794 
L 212.56128 82.000524 
L 212.79564 80.984112 
L 212.89608 81.006007 
L 213.03 81.460238 
L 213.26436 83.424795 
L 213.59916 88.709594 
L 214.06788 100.143723 
L 214.8714 126.198921 
L 215.90928 158.538181 
L 217.61676 199.018004 
L 218.11896 207.529066 
L 218.42028 209.596034 
L 218.52072 209.731223 
L 218.5542 209.714757 
L 218.68812 209.342929 
L 218.889 207.87556 
L 219.19032 203.681864 
L 219.62556 193.903592 
L 220.32864 172.087559 
L 221.46696 137.156001 
L 222.27048 120.17579 
L 223.2414 103.351482 
L 223.5762 100.483245 
L 223.77708 100.048783 
L 223.87752 100.2245 
L 224.04492 101.112931 
L 224.31276 104.079159 
L 224.68104 111.058476 
L 225.21672 125.959061 
L 227.0916 182.481097 
L 228.89952 219.300281 
L 229.20084 221.272984 
L 229.30128 221.388206 
L 229.33476 221.365246 
L 229.46868 220.96557 
L 229.66956 219.446361 
L 229.97088 215.180953 
L 230.40612 205.372473 
L 231.07572 184.378931 
L 232.38144 142.434281 
L 234.792 85.263741 
L 235.05984 83.489006 
L 235.19376 83.34127 
L 235.2942 83.551295 
L 235.4616 84.511454 
L 235.72944 87.615814 
L 236.1312 95.562192 
L 236.73384 112.899611 
L 238.50828 167.480583 
L 240.45012 209.474835 
L 240.75144 211.355245 
L 240.85188 211.427966 
L 240.88536 211.390613 
L 241.01928 210.934596 
L 241.25364 208.96651 
L 241.58844 203.670418 
L 242.05716 192.128671 
L 242.89416 164.829172 
L 243.79812 137.650471 
L 244.6686 118.983237 
L 245.673 100.732232 
L 246.0078 97.993565 
L 246.1752 97.681291 
L 246.27564 97.852334 
L 246.44304 98.742483 
L 246.71088 101.72776 
L 247.07916 108.746817 
L 247.61484 123.695394 
L 249.48972 180.521549 
L 251.33112 218.183679 
L 251.59896 219.913632 
L 251.73288 220.050007 
L 251.83332 219.828591 
L 252.0342 218.553769 
L 252.33552 214.621383 
L 252.73728 206.041034 
L 253.3734 186.800775 
L 254.88 139.058523 
L 257.19012 86.54284 
L 257.45796 85.214693 
L 257.5584 85.226772 
L 257.69232 85.673001 
L 257.8932 87.260351 
L 258.19452 91.641264 
L 258.62976 101.617754 
L 259.33284 123.726319 
L 260.5716 162.876833 
L 262.27908 202.706676 
L 262.7478 210.403663 
L 263.04912 212.436409 
L 263.14956 212.559958 
L 263.18304 212.53935 
L 263.31696 212.148994 
L 263.51784 210.646046 
L 263.81916 206.38533 
L 264.2544 196.509668 
L 264.95748 174.458753 
L 266.12928 137.979169 
L 267.03324 118.413272 
L 268.07112 98.916671 
L 268.40592 96.268045 
L 268.53984 96.019606 
L 268.57332 96.032969 
L 268.67376 96.25569 
L 268.87464 97.524524 
L 269.14248 100.894707 
L 269.54424 109.203288 
L 270.14688 127.09908 
L 271.65348 174.217746 
L 273.42792 213.157665 
L 273.82968 218.094086 
L 274.06404 219.040542 
L 274.16448 218.98565 
L 274.2984 218.480133 
L 274.53276 216.415417 
L 274.86756 210.997535 
L 275.33628 199.346429 
L 276.1398 172.662815 
L 277.11072 142.176687 
L 279.153 93.192991 
L 279.55476 87.79739 
L 279.78912 86.672082 
L 279.88956 86.654044 
L 280.02348 87.06108 
L 280.22436 88.590789 
L 280.52568 92.890545 
L 280.96092 102.781916 
L 281.664 124.857731 
L 282.90276 164.034149 
L 284.57676 202.900313 
L 285.07896 211.30402 
L 285.38028 213.348353 
L 285.48072 213.477138 
L 285.5142 213.458342 
L 285.64812 213.075355 
L 285.849 211.583167 
L 286.15032 207.338108 
L 286.58556 197.484257 
L 287.28864 175.421072 
L 288.46044 138.693552 
L 289.39788 118.16583 
L 290.46924 97.448709 
L 290.80404 94.844226 
L 290.93796 94.6274 
L 290.97144 94.649263 
L 291.10536 95.042629 
L 291.30624 96.548892 
L 291.60756 100.809743 
L 292.0428 110.677297 
L 292.7124 131.726378 
L 293.91768 169.922007 
L 295.056 195.48835 
L 295.95996 214.484924 
L 296.29476 217.821085 
L 296.49564 218.38902 
L 296.59608 218.257663 
L 296.76348 217.422299 
L 297.03132 214.506518 
L 297.3996 207.574837 
L 297.93528 192.768858 
L 300.01104 130.126616 
L 301.04892 104.824727 
L 301.65156 91.966473 
L 302.01984 88.156507 
L 302.22072 87.641871 
L 302.32116 87.801377 
L 302.48856 88.682055 
L 302.7564 91.667845 
L 303.12468 98.693235 
L 303.69384 114.625782 
L 305.63568 173.54103 
L 307.51056 212.731413 
L 307.7784 214.135466 
L 307.87884 214.15409 
L 308.01276 213.747496 
L 308.21364 212.218925 
L 308.51496 207.920369 
L 308.9502 198.004722 
L 309.65328 175.865664 
L 310.82508 139.034682 
L 311.82948 116.845281 
L 312.83388 96.883358 
L 313.16868 94.015441 
L 313.33608 93.692261 
L 313.43652 93.865659 
L 313.60392 94.768572 
L 313.87176 97.787358 
L 314.24004 104.856981 
L 314.8092 120.911232 
L 316.6506 177.047522 
L 318.52548 215.932992 
L 318.79332 217.648447 
L 318.89376 217.788228 
L 318.92724 217.773125 
L 319.06116 217.403934 
L 319.26204 215.927266 
L 319.56336 211.703283 
L 319.9986 201.893988 
L 320.6682 180.916807 
L 321.94044 140.387757 
L 323.88228 95.039671 
L 324.28404 89.683823 
L 324.5184 88.551163 
L 324.61884 88.529713 
L 324.75276 88.93324 
L 324.95364 90.459362 
L 325.25496 94.755379 
L 325.6902 104.65168 
L 326.39328 126.778215 
L 327.63204 165.850572 
L 329.30604 204.411625 
L 329.77476 212.236579 
L 330.07608 214.415172 
L 330.21 214.58715 
L 330.24348 214.552968 
L 330.3774 214.108176 
L 330.57828 212.522297 
L 330.8796 208.14265 
L 331.31484 198.134938 
L 332.01792 175.904525 
L 333.18972 139.081524 
L 334.2276 116.094958 
L 335.19852 96.4547 
L 335.53332 93.426353 
L 335.70072 93.025482 
L 335.7342 93.037164 
L 335.83464 93.256645 
L 336.03552 94.524057 
L 336.30336 97.897614 
L 336.70512 106.209871 
L 337.30776 124.076034 
L 338.84784 172.23248 
L 340.68924 212.609416 
L 341.05752 216.662581 
L 341.29188 217.368272 
L 341.39232 217.209065 
L 341.55972 216.327828 
L 341.82756 213.341045 
L 342.19584 206.31862 
L 342.765 190.348871 
L 344.67336 132.119011 
L 346.68216 90.067396 
L 346.91652 89.097118 
L 347.01696 89.144148 
L 347.15088 89.63799 
L 347.38524 91.678917 
L 347.72004 97.073089 
L 348.18876 108.705112 
L 348.99228 135.192283 
L 349.9632 165.317515 
L 351.3024 196.12136 
L 352.03896 211.296885 
L 352.37376 214.539621 
L 352.57464 215.034513 
L 352.67508 214.866274 
L 352.84248 213.971821 
L 353.11032 210.967436 
L 353.4786 203.91586 
L 354.04776 187.921414 
L 355.88916 131.859361 
L 357.6636 95.036939 
L 357.96492 92.677026 
L 358.13232 92.419121 
L 358.23276 92.632676 
L 358.40016 93.6022 
L 358.668 96.722795 
L 359.06976 104.708566 
L 359.63892 121.149872 
L 361.37988 174.659841 
L 363.28824 214.881289 
L 363.58956 216.959167 
L 363.72348 217.090695 
L 363.82392 216.865983 
L 364.0248 215.58709 
L 364.32612 211.646131 
L 364.72788 203.034344 
L 365.364 183.787254 
L 366.83712 137.507324 
L 368.81244 93.315907 
L 369.14724 90.024665 
L 369.34812 89.508842 
L 369.44856 89.667272 
L 369.61596 90.54635 
L 369.8838 93.529001 
L 370.25208 100.550893 
L 370.82124 116.501696 
L 372.7296 174.519598 
L 374.60448 213.678404 
L 374.87232 215.225218 
L 374.97276 215.299254 
L 375.00624 215.262283 
L 375.14016 214.806605 
L 375.37452 212.831904 
L 375.70932 207.522377 
L 376.17804 195.965174 
L 376.98156 169.533831 
L 377.95248 139.573207 
L 379.05732 114.805797 
L 379.99476 95.528451 
L 380.32956 92.472422 
L 380.49696 92.066429 
L 380.53044 92.077339 
L 380.63088 92.294738 
L 380.79828 93.271471 
L 381.06612 96.404992 
L 381.46788 104.409824 
L 382.03704 120.867944 
L 383.778 174.382117 
L 385.68636 214.584378 
L 385.98768 216.651296 
L 386.08812 216.791709 
L 386.1216 216.776883 
L 386.25552 216.409376 
L 386.4564 214.937218 
L 386.75772 210.720812 
L 387.19296 200.917629 
L 387.86256 179.972038 
L 388.83348 147.710601 
L 388.83348 147.710601 
" style="fill:none;stroke:#1f77b4;stroke-linecap:square;stroke-width:1.5;"/>
   </g>
   <g id="patch_3">
    <path d="M 54 252 
L 54 34.56 
" style="fill:none;stroke:#000000;stroke-linecap:square;stroke-linejoin:miter;stroke-width:0.8;"/>
   </g>
   <g id="patch_4">
    <path d="M 388.8 252 
L 388.8 34.56 
" style="fill:none;stroke:#000000;stroke-linecap:square;stroke-linejoin:miter;stroke-width:0.8;"/>
   </g>
   <g id="patch_5">
    <path d="M 54 252 
L 388.8 252 
" style="fill:none;stroke:#000000;stroke-linecap:square;stroke-linejoin:miter;stroke-width:0.8;"/>
   </g>
   <g id="patch_6">
    <path d="M 54 34.56 
L 388.8 34.56 
" style="fill:none;stroke:#000000;stroke-linecap:square;stroke-linejoin:miter;stroke-width:0.8;"/>
   </g>
   <g id="text_15">
    <!-- Voie rectiligne avec défaut de dressage -->
    <g transform="translate(102.79125 28.56)scale(0.12 -0.12)">
     <defs>
      <path d="M 28.609375 0 
L 0.78125 72.90625 
L 11.078125 72.90625 
L 34.1875 11.53125 
L 57.328125 72.90625 
L 67.578125 72.90625 
L 39.796875 0 
z
" id="DejaVuSans-86"/>
      <path d="M 45.40625 27.984375 
Q 45.40625 37.75 41.375 43.109375 
Q 37.359375 48.484375 30.078125 48.484375 
Q 22.859375 48.484375 18.828125 43.109375 
Q 14.796875 37.75 14.796875 27.984375 
Q 14.796875 18.265625 18.828125 12.890625 
Q 22.859375 7.515625 30.078125 7.515625 
Q 37.359375 7.515625 41.375 12.890625 
Q 45.40625 18.265625 45.40625 27.984375 
z
M 54.390625 6.78125 
Q 54.390625 -7.171875 48.1875 -13.984375 
Q 42 -20.796875 29.203125 -20.796875 
Q 24.46875 -20.796875 20.265625 -20.09375 
Q 16.0625 -19.390625 12.109375 -17.921875 
L 12.109375 -9.1875 
Q 16.0625 -11.328125 19.921875 -12.34375 
Q 23.78125 -13.375 27.78125 -13.375 
Q 36.625 -13.375 41.015625 -8.765625 
Q 45.40625 -4.15625 45.40625 5.171875 
L 45.40625 9.625 
Q 42.625 4.78125 38.28125 2.390625 
Q 33.9375 0 27.875 0 
Q 17.828125 0 11.671875 7.65625 
Q 5.515625 15.328125 5.515625 27.984375 
Q 5.515625 40.671875 11.671875 48.328125 
Q 17.828125 56 27.875 56 
Q 33.9375 56 38.28125 53.609375 
Q 42.625 51.21875 45.40625 46.390625 
L 45.40625 54.6875 
L 54.390625 54.6875 
z
" id="DejaVuSans-103"/>
      <path d="M 37.109375 75.984375 
L 37.109375 68.5 
L 28.515625 68.5 
Q 23.6875 68.5 21.796875 66.546875 
Q 19.921875 64.59375 19.921875 59.515625 
L 19.921875 54.6875 
L 34.71875 54.6875 
L 34.71875 47.703125 
L 19.921875 47.703125 
L 19.921875 0 
L 10.890625 0 
L 10.890625 47.703125 
L 2.296875 47.703125 
L 2.296875 54.6875 
L 10.890625 54.6875 
L 10.890625 58.5 
Q 10.890625 67.625 15.140625 71.796875 
Q 19.390625 75.984375 28.609375 75.984375 
z
" id="DejaVuSans-102"/>
     </defs>
     <use xlink:href="#DejaVuSans-86"/>
     <use x="60.658203" xlink:href="#DejaVuSans-111"/>
     <use x="121.839844" xlink:href="#DejaVuSans-105"/>
     <use x="149.623047" xlink:href="#DejaVuSans-101"/>
     <use x="211.146484" xlink:href="#DejaVuSans-32"/>
     <use x="242.933594" xlink:href="#DejaVuSans-114"/>
     <use x="281.796875" xlink:href="#DejaVuSans-101"/>
     <use x="343.320312" xlink:href="#DejaVuSans-99"/>
     <use x="398.300781" xlink:href="#DejaVuSans-116"/>
     <use x="437.509766" xlink:href="#DejaVuSans-105"/>
     <use x="465.292969" xlink:href="#DejaVuSans-108"/>
     <use x="493.076172" xlink:href="#DejaVuSans-105"/>
     <use x="520.859375" xlink:href="#DejaVuSans-103"/>
     <use x="584.335938" xlink:href="#DejaVuSans-110"/>
     <use x="647.714844" xlink:href="#DejaVuSans-101"/>
     <use x="709.238281" xlink:href="#DejaVuSans-32"/>
     <use x="741.025391" xlink:href="#DejaVuSans-97"/>
     <use x="802.304688" xlink:href="#DejaVuSans-118"/>
     <use x="861.484375" xlink:href="#DejaVuSans-101"/>
     <use x="923.007812" xlink:href="#DejaVuSans-99"/>
     <use x="977.988281" xlink:href="#DejaVuSans-32"/>
     <use x="1009.775391" xlink:href="#DejaVuSans-100"/>
     <use x="1073.251953" xlink:href="#DejaVuSans-233"/>
     <use x="1134.775391" xlink:href="#DejaVuSans-102"/>
     <use x="1169.980469" xlink:href="#DejaVuSans-97"/>
     <use x="1231.259766" xlink:href="#DejaVuSans-117"/>
     <use x="1294.638672" xlink:href="#DejaVuSans-116"/>
     <use x="1333.847656" xlink:href="#DejaVuSans-32"/>
     <use x="1365.634766" xlink:href="#DejaVuSans-100"/>
     <use x="1429.111328" xlink:href="#DejaVuSans-101"/>
     <use x="1490.634766" xlink:href="#DejaVuSans-32"/>
     <use x="1522.421875" xlink:href="#DejaVuSans-100"/>
     <use x="1585.898438" xlink:href="#DejaVuSans-114"/>
     <use x="1624.761719" xlink:href="#DejaVuSans-101"/>
     <use x="1686.285156" xlink:href="#DejaVuSans-115"/>
     <use x="1738.384766" xlink:href="#DejaVuSans-115"/>
     <use x="1790.484375" xlink:href="#DejaVuSans-97"/>
     <use x="1851.763672" xlink:href="#DejaVuSans-103"/>
     <use x="1915.240234" xlink:href="#DejaVuSans-101"/>
    </g>
   </g>
  </g>
 </g>
 <defs>
  <clipPath id="pffa653fa26">
   <rect height="217.44" width="334.8" x="54" y="34.56"/>
  </clipPath>
 </defs>
</svg>
