<?xml version="1.0" encoding="utf-8" standalone="no"?>
<!DOCTYPE svg PUBLIC "-//W3C//DTD SVG 1.1//EN"
  "http://www.w3.org/Graphics/SVG/1.1/DTD/svg11.dtd">
<!-- Created with matplotlib (https://matplotlib.org/) -->
<svg height="288pt" version="1.1" viewBox="0 0 432 288" width="432pt" xmlns="http://www.w3.org/2000/svg" xmlns:xlink="http://www.w3.org/1999/xlink">
 <metadata>
  <rdf:RDF xmlns:cc="http://creativecommons.org/ns#" xmlns:dc="http://purl.org/dc/elements/1.1/" xmlns:rdf="http://www.w3.org/1999/02/22-rdf-syntax-ns#">
   <cc:Work>
    <dc:type rdf:resource="http://purl.org/dc/dcmitype/StillImage"/>
    <dc:date>2021-03-25T21:58:07.769261</dc:date>
    <dc:format>image/svg+xml</dc:format>
    <dc:creator>
     <cc:Agent>
      <dc:title>Matplotlib v3.3.2, https://matplotlib.org/</dc:title>
     </cc:Agent>
    </dc:creator>
   </cc:Work>
  </rdf:RDF>
 </metadata>
 <defs>
  <style type="text/css">*{stroke-linecap:butt;stroke-linejoin:round;}</style>
 </defs>
 <g id="figure_1">
  <g id="patch_1">
   <path d="M 0 288 
L 432 288 
L 432 0 
L 0 0 
z
" style="fill:#ffffff;"/>
  </g>
  <g id="axes_1">
   <g id="patch_2">
    <path d="M 54 252 
L 388.8 252 
L 388.8 34.56 
L 54 34.56 
z
" style="fill:#ffffff;"/>
   </g>
   <g id="matplotlib.axis_1">
    <g id="xtick_1">
     <g id="line2d_1">
      <path clip-path="url(#p8a844a800e)" d="M 54 252 
L 54 34.56 
" style="fill:none;stroke:#b0b0b0;stroke-linecap:square;stroke-width:0.8;"/>
     </g>
     <g id="line2d_2">
      <defs>
       <path d="M 0 0 
L 0 3.5 
" id="m821b98e2bc" style="stroke:#000000;stroke-width:0.8;"/>
      </defs>
      <g>
       <use style="stroke:#000000;stroke-width:0.8;" x="54" xlink:href="#m821b98e2bc" y="252"/>
      </g>
     </g>
     <g id="text_1">
      <!-- 0 -->
      <g transform="translate(50.81875 266.598437)scale(0.1 -0.1)">
       <defs>
        <path d="M 31.78125 66.40625 
Q 24.171875 66.40625 20.328125 58.90625 
Q 16.5 51.421875 16.5 36.375 
Q 16.5 21.390625 20.328125 13.890625 
Q 24.171875 6.390625 31.78125 6.390625 
Q 39.453125 6.390625 43.28125 13.890625 
Q 47.125 21.390625 47.125 36.375 
Q 47.125 51.421875 43.28125 58.90625 
Q 39.453125 66.40625 31.78125 66.40625 
z
M 31.78125 74.21875 
Q 44.046875 74.21875 50.515625 64.515625 
Q 56.984375 54.828125 56.984375 36.375 
Q 56.984375 17.96875 50.515625 8.265625 
Q 44.046875 -1.421875 31.78125 -1.421875 
Q 19.53125 -1.421875 13.0625 8.265625 
Q 6.59375 17.96875 6.59375 36.375 
Q 6.59375 54.828125 13.0625 64.515625 
Q 19.53125 74.21875 31.78125 74.21875 
z
" id="DejaVuSans-48"/>
       </defs>
       <use xlink:href="#DejaVuSans-48"/>
      </g>
     </g>
    </g>
    <g id="xtick_2">
     <g id="line2d_3">
      <path clip-path="url(#p8a844a800e)" d="M 120.96 252 
L 120.96 34.56 
" style="fill:none;stroke:#b0b0b0;stroke-linecap:square;stroke-width:0.8;"/>
     </g>
     <g id="line2d_4">
      <g>
       <use style="stroke:#000000;stroke-width:0.8;" x="120.96" xlink:href="#m821b98e2bc" y="252"/>
      </g>
     </g>
     <g id="text_2">
      <!-- 2 -->
      <g transform="translate(117.77875 266.598437)scale(0.1 -0.1)">
       <defs>
        <path d="M 19.1875 8.296875 
L 53.609375 8.296875 
L 53.609375 0 
L 7.328125 0 
L 7.328125 8.296875 
Q 12.9375 14.109375 22.625 23.890625 
Q 32.328125 33.6875 34.8125 36.53125 
Q 39.546875 41.84375 41.421875 45.53125 
Q 43.3125 49.21875 43.3125 52.78125 
Q 43.3125 58.59375 39.234375 62.25 
Q 35.15625 65.921875 28.609375 65.921875 
Q 23.96875 65.921875 18.8125 64.3125 
Q 13.671875 62.703125 7.8125 59.421875 
L 7.8125 69.390625 
Q 13.765625 71.78125 18.9375 73 
Q 24.125 74.21875 28.421875 74.21875 
Q 39.75 74.21875 46.484375 68.546875 
Q 53.21875 62.890625 53.21875 53.421875 
Q 53.21875 48.921875 51.53125 44.890625 
Q 49.859375 40.875 45.40625 35.40625 
Q 44.1875 33.984375 37.640625 27.21875 
Q 31.109375 20.453125 19.1875 8.296875 
z
" id="DejaVuSans-50"/>
       </defs>
       <use xlink:href="#DejaVuSans-50"/>
      </g>
     </g>
    </g>
    <g id="xtick_3">
     <g id="line2d_5">
      <path clip-path="url(#p8a844a800e)" d="M 187.92 252 
L 187.92 34.56 
" style="fill:none;stroke:#b0b0b0;stroke-linecap:square;stroke-width:0.8;"/>
     </g>
     <g id="line2d_6">
      <g>
       <use style="stroke:#000000;stroke-width:0.8;" x="187.92" xlink:href="#m821b98e2bc" y="252"/>
      </g>
     </g>
     <g id="text_3">
      <!-- 4 -->
      <g transform="translate(184.73875 266.598437)scale(0.1 -0.1)">
       <defs>
        <path d="M 37.796875 64.3125 
L 12.890625 25.390625 
L 37.796875 25.390625 
z
M 35.203125 72.90625 
L 47.609375 72.90625 
L 47.609375 25.390625 
L 58.015625 25.390625 
L 58.015625 17.1875 
L 47.609375 17.1875 
L 47.609375 0 
L 37.796875 0 
L 37.796875 17.1875 
L 4.890625 17.1875 
L 4.890625 26.703125 
z
" id="DejaVuSans-52"/>
       </defs>
       <use xlink:href="#DejaVuSans-52"/>
      </g>
     </g>
    </g>
    <g id="xtick_4">
     <g id="line2d_7">
      <path clip-path="url(#p8a844a800e)" d="M 254.88 252 
L 254.88 34.56 
" style="fill:none;stroke:#b0b0b0;stroke-linecap:square;stroke-width:0.8;"/>
     </g>
     <g id="line2d_8">
      <g>
       <use style="stroke:#000000;stroke-width:0.8;" x="254.88" xlink:href="#m821b98e2bc" y="252"/>
      </g>
     </g>
     <g id="text_4">
      <!-- 6 -->
      <g transform="translate(251.69875 266.598437)scale(0.1 -0.1)">
       <defs>
        <path d="M 33.015625 40.375 
Q 26.375 40.375 22.484375 35.828125 
Q 18.609375 31.296875 18.609375 23.390625 
Q 18.609375 15.53125 22.484375 10.953125 
Q 26.375 6.390625 33.015625 6.390625 
Q 39.65625 6.390625 43.53125 10.953125 
Q 47.40625 15.53125 47.40625 23.390625 
Q 47.40625 31.296875 43.53125 35.828125 
Q 39.65625 40.375 33.015625 40.375 
z
M 52.59375 71.296875 
L 52.59375 62.3125 
Q 48.875 64.0625 45.09375 64.984375 
Q 41.3125 65.921875 37.59375 65.921875 
Q 27.828125 65.921875 22.671875 59.328125 
Q 17.53125 52.734375 16.796875 39.40625 
Q 19.671875 43.65625 24.015625 45.921875 
Q 28.375 48.1875 33.59375 48.1875 
Q 44.578125 48.1875 50.953125 41.515625 
Q 57.328125 34.859375 57.328125 23.390625 
Q 57.328125 12.15625 50.6875 5.359375 
Q 44.046875 -1.421875 33.015625 -1.421875 
Q 20.359375 -1.421875 13.671875 8.265625 
Q 6.984375 17.96875 6.984375 36.375 
Q 6.984375 53.65625 15.1875 63.9375 
Q 23.390625 74.21875 37.203125 74.21875 
Q 40.921875 74.21875 44.703125 73.484375 
Q 48.484375 72.75 52.59375 71.296875 
z
" id="DejaVuSans-54"/>
       </defs>
       <use xlink:href="#DejaVuSans-54"/>
      </g>
     </g>
    </g>
    <g id="xtick_5">
     <g id="line2d_9">
      <path clip-path="url(#p8a844a800e)" d="M 321.84 252 
L 321.84 34.56 
" style="fill:none;stroke:#b0b0b0;stroke-linecap:square;stroke-width:0.8;"/>
     </g>
     <g id="line2d_10">
      <g>
       <use style="stroke:#000000;stroke-width:0.8;" x="321.84" xlink:href="#m821b98e2bc" y="252"/>
      </g>
     </g>
     <g id="text_5">
      <!-- 8 -->
      <g transform="translate(318.65875 266.598437)scale(0.1 -0.1)">
       <defs>
        <path d="M 31.78125 34.625 
Q 24.75 34.625 20.71875 30.859375 
Q 16.703125 27.09375 16.703125 20.515625 
Q 16.703125 13.921875 20.71875 10.15625 
Q 24.75 6.390625 31.78125 6.390625 
Q 38.8125 6.390625 42.859375 10.171875 
Q 46.921875 13.96875 46.921875 20.515625 
Q 46.921875 27.09375 42.890625 30.859375 
Q 38.875 34.625 31.78125 34.625 
z
M 21.921875 38.8125 
Q 15.578125 40.375 12.03125 44.71875 
Q 8.5 49.078125 8.5 55.328125 
Q 8.5 64.0625 14.71875 69.140625 
Q 20.953125 74.21875 31.78125 74.21875 
Q 42.671875 74.21875 48.875 69.140625 
Q 55.078125 64.0625 55.078125 55.328125 
Q 55.078125 49.078125 51.53125 44.71875 
Q 48 40.375 41.703125 38.8125 
Q 48.828125 37.15625 52.796875 32.3125 
Q 56.78125 27.484375 56.78125 20.515625 
Q 56.78125 9.90625 50.3125 4.234375 
Q 43.84375 -1.421875 31.78125 -1.421875 
Q 19.734375 -1.421875 13.25 4.234375 
Q 6.78125 9.90625 6.78125 20.515625 
Q 6.78125 27.484375 10.78125 32.3125 
Q 14.796875 37.15625 21.921875 38.8125 
z
M 18.3125 54.390625 
Q 18.3125 48.734375 21.84375 45.5625 
Q 25.390625 42.390625 31.78125 42.390625 
Q 38.140625 42.390625 41.71875 45.5625 
Q 45.3125 48.734375 45.3125 54.390625 
Q 45.3125 60.0625 41.71875 63.234375 
Q 38.140625 66.40625 31.78125 66.40625 
Q 25.390625 66.40625 21.84375 63.234375 
Q 18.3125 60.0625 18.3125 54.390625 
z
" id="DejaVuSans-56"/>
       </defs>
       <use xlink:href="#DejaVuSans-56"/>
      </g>
     </g>
    </g>
    <g id="xtick_6">
     <g id="line2d_11">
      <path clip-path="url(#p8a844a800e)" d="M 388.8 252 
L 388.8 34.56 
" style="fill:none;stroke:#b0b0b0;stroke-linecap:square;stroke-width:0.8;"/>
     </g>
     <g id="line2d_12">
      <g>
       <use style="stroke:#000000;stroke-width:0.8;" x="388.8" xlink:href="#m821b98e2bc" y="252"/>
      </g>
     </g>
     <g id="text_6">
      <!-- 10 -->
      <g transform="translate(382.4375 266.598437)scale(0.1 -0.1)">
       <defs>
        <path d="M 12.40625 8.296875 
L 28.515625 8.296875 
L 28.515625 63.921875 
L 10.984375 60.40625 
L 10.984375 69.390625 
L 28.421875 72.90625 
L 38.28125 72.90625 
L 38.28125 8.296875 
L 54.390625 8.296875 
L 54.390625 0 
L 12.40625 0 
z
" id="DejaVuSans-49"/>
       </defs>
       <use xlink:href="#DejaVuSans-49"/>
       <use x="63.623047" xlink:href="#DejaVuSans-48"/>
      </g>
     </g>
    </g>
    <g id="text_7">
     <!-- temps [s] -->
     <g transform="translate(197.61875 280.276563)scale(0.1 -0.1)">
      <defs>
       <path d="M 18.3125 70.21875 
L 18.3125 54.6875 
L 36.8125 54.6875 
L 36.8125 47.703125 
L 18.3125 47.703125 
L 18.3125 18.015625 
Q 18.3125 11.328125 20.140625 9.421875 
Q 21.96875 7.515625 27.59375 7.515625 
L 36.8125 7.515625 
L 36.8125 0 
L 27.59375 0 
Q 17.1875 0 13.234375 3.875 
Q 9.28125 7.765625 9.28125 18.015625 
L 9.28125 47.703125 
L 2.6875 47.703125 
L 2.6875 54.6875 
L 9.28125 54.6875 
L 9.28125 70.21875 
z
" id="DejaVuSans-116"/>
       <path d="M 56.203125 29.59375 
L 56.203125 25.203125 
L 14.890625 25.203125 
Q 15.484375 15.921875 20.484375 11.0625 
Q 25.484375 6.203125 34.421875 6.203125 
Q 39.59375 6.203125 44.453125 7.46875 
Q 49.3125 8.734375 54.109375 11.28125 
L 54.109375 2.78125 
Q 49.265625 0.734375 44.1875 -0.34375 
Q 39.109375 -1.421875 33.890625 -1.421875 
Q 20.796875 -1.421875 13.15625 6.1875 
Q 5.515625 13.8125 5.515625 26.8125 
Q 5.515625 40.234375 12.765625 48.109375 
Q 20.015625 56 32.328125 56 
Q 43.359375 56 49.78125 48.890625 
Q 56.203125 41.796875 56.203125 29.59375 
z
M 47.21875 32.234375 
Q 47.125 39.59375 43.09375 43.984375 
Q 39.0625 48.390625 32.421875 48.390625 
Q 24.90625 48.390625 20.390625 44.140625 
Q 15.875 39.890625 15.1875 32.171875 
z
" id="DejaVuSans-101"/>
       <path d="M 52 44.1875 
Q 55.375 50.25 60.0625 53.125 
Q 64.75 56 71.09375 56 
Q 79.640625 56 84.28125 50.015625 
Q 88.921875 44.046875 88.921875 33.015625 
L 88.921875 0 
L 79.890625 0 
L 79.890625 32.71875 
Q 79.890625 40.578125 77.09375 44.375 
Q 74.3125 48.1875 68.609375 48.1875 
Q 61.625 48.1875 57.5625 43.546875 
Q 53.515625 38.921875 53.515625 30.90625 
L 53.515625 0 
L 44.484375 0 
L 44.484375 32.71875 
Q 44.484375 40.625 41.703125 44.40625 
Q 38.921875 48.1875 33.109375 48.1875 
Q 26.21875 48.1875 22.15625 43.53125 
Q 18.109375 38.875 18.109375 30.90625 
L 18.109375 0 
L 9.078125 0 
L 9.078125 54.6875 
L 18.109375 54.6875 
L 18.109375 46.1875 
Q 21.1875 51.21875 25.484375 53.609375 
Q 29.78125 56 35.6875 56 
Q 41.65625 56 45.828125 52.96875 
Q 50 49.953125 52 44.1875 
z
" id="DejaVuSans-109"/>
       <path d="M 18.109375 8.203125 
L 18.109375 -20.796875 
L 9.078125 -20.796875 
L 9.078125 54.6875 
L 18.109375 54.6875 
L 18.109375 46.390625 
Q 20.953125 51.265625 25.265625 53.625 
Q 29.59375 56 35.59375 56 
Q 45.5625 56 51.78125 48.09375 
Q 58.015625 40.1875 58.015625 27.296875 
Q 58.015625 14.40625 51.78125 6.484375 
Q 45.5625 -1.421875 35.59375 -1.421875 
Q 29.59375 -1.421875 25.265625 0.953125 
Q 20.953125 3.328125 18.109375 8.203125 
z
M 48.6875 27.296875 
Q 48.6875 37.203125 44.609375 42.84375 
Q 40.53125 48.484375 33.40625 48.484375 
Q 26.265625 48.484375 22.1875 42.84375 
Q 18.109375 37.203125 18.109375 27.296875 
Q 18.109375 17.390625 22.1875 11.75 
Q 26.265625 6.109375 33.40625 6.109375 
Q 40.53125 6.109375 44.609375 11.75 
Q 48.6875 17.390625 48.6875 27.296875 
z
" id="DejaVuSans-112"/>
       <path d="M 44.28125 53.078125 
L 44.28125 44.578125 
Q 40.484375 46.53125 36.375 47.5 
Q 32.28125 48.484375 27.875 48.484375 
Q 21.1875 48.484375 17.84375 46.4375 
Q 14.5 44.390625 14.5 40.28125 
Q 14.5 37.15625 16.890625 35.375 
Q 19.28125 33.59375 26.515625 31.984375 
L 29.59375 31.296875 
Q 39.15625 29.25 43.1875 25.515625 
Q 47.21875 21.78125 47.21875 15.09375 
Q 47.21875 7.46875 41.1875 3.015625 
Q 35.15625 -1.421875 24.609375 -1.421875 
Q 20.21875 -1.421875 15.453125 -0.5625 
Q 10.6875 0.296875 5.421875 2 
L 5.421875 11.28125 
Q 10.40625 8.6875 15.234375 7.390625 
Q 20.0625 6.109375 24.8125 6.109375 
Q 31.15625 6.109375 34.5625 8.28125 
Q 37.984375 10.453125 37.984375 14.40625 
Q 37.984375 18.0625 35.515625 20.015625 
Q 33.0625 21.96875 24.703125 23.78125 
L 21.578125 24.515625 
Q 13.234375 26.265625 9.515625 29.90625 
Q 5.8125 33.546875 5.8125 39.890625 
Q 5.8125 47.609375 11.28125 51.796875 
Q 16.75 56 26.8125 56 
Q 31.78125 56 36.171875 55.265625 
Q 40.578125 54.546875 44.28125 53.078125 
z
" id="DejaVuSans-115"/>
       <path id="DejaVuSans-32"/>
       <path d="M 8.59375 75.984375 
L 29.296875 75.984375 
L 29.296875 69 
L 17.578125 69 
L 17.578125 -6.203125 
L 29.296875 -6.203125 
L 29.296875 -13.1875 
L 8.59375 -13.1875 
z
" id="DejaVuSans-91"/>
       <path d="M 30.421875 75.984375 
L 30.421875 -13.1875 
L 9.71875 -13.1875 
L 9.71875 -6.203125 
L 21.390625 -6.203125 
L 21.390625 69 
L 9.71875 69 
L 9.71875 75.984375 
z
" id="DejaVuSans-93"/>
      </defs>
      <use xlink:href="#DejaVuSans-116"/>
      <use x="39.208984" xlink:href="#DejaVuSans-101"/>
      <use x="100.732422" xlink:href="#DejaVuSans-109"/>
      <use x="198.144531" xlink:href="#DejaVuSans-112"/>
      <use x="261.621094" xlink:href="#DejaVuSans-115"/>
      <use x="313.720703" xlink:href="#DejaVuSans-32"/>
      <use x="345.507812" xlink:href="#DejaVuSans-91"/>
      <use x="384.521484" xlink:href="#DejaVuSans-115"/>
      <use x="436.621094" xlink:href="#DejaVuSans-93"/>
     </g>
    </g>
   </g>
   <g id="matplotlib.axis_2">
    <g id="ytick_1">
     <g id="line2d_13">
      <path clip-path="url(#p8a844a800e)" d="M 54 224.56831 
L 388.8 224.56831 
" style="fill:none;stroke:#b0b0b0;stroke-linecap:square;stroke-width:0.8;"/>
     </g>
     <g id="line2d_14">
      <defs>
       <path d="M 0 0 
L -3.5 0 
" id="m2e4c1bbb70" style="stroke:#000000;stroke-width:0.8;"/>
      </defs>
      <g>
       <use style="stroke:#000000;stroke-width:0.8;" x="54" xlink:href="#m2e4c1bbb70" y="224.56831"/>
      </g>
     </g>
     <g id="text_8">
      <!-- −20 -->
      <g transform="translate(25.895312 228.367529)scale(0.1 -0.1)">
       <defs>
        <path d="M 10.59375 35.5 
L 73.1875 35.5 
L 73.1875 27.203125 
L 10.59375 27.203125 
z
" id="DejaVuSans-8722"/>
       </defs>
       <use xlink:href="#DejaVuSans-8722"/>
       <use x="83.789062" xlink:href="#DejaVuSans-50"/>
       <use x="147.412109" xlink:href="#DejaVuSans-48"/>
      </g>
     </g>
    </g>
    <g id="ytick_2">
     <g id="line2d_15">
      <path clip-path="url(#p8a844a800e)" d="M 54 180.674771 
L 388.8 180.674771 
" style="fill:none;stroke:#b0b0b0;stroke-linecap:square;stroke-width:0.8;"/>
     </g>
     <g id="line2d_16">
      <g>
       <use style="stroke:#000000;stroke-width:0.8;" x="54" xlink:href="#m2e4c1bbb70" y="180.674771"/>
      </g>
     </g>
     <g id="text_9">
      <!-- −10 -->
      <g transform="translate(25.895312 184.47399)scale(0.1 -0.1)">
       <use xlink:href="#DejaVuSans-8722"/>
       <use x="83.789062" xlink:href="#DejaVuSans-49"/>
       <use x="147.412109" xlink:href="#DejaVuSans-48"/>
      </g>
     </g>
    </g>
    <g id="ytick_3">
     <g id="line2d_17">
      <path clip-path="url(#p8a844a800e)" d="M 54 136.781232 
L 388.8 136.781232 
" style="fill:none;stroke:#b0b0b0;stroke-linecap:square;stroke-width:0.8;"/>
     </g>
     <g id="line2d_18">
      <g>
       <use style="stroke:#000000;stroke-width:0.8;" x="54" xlink:href="#m2e4c1bbb70" y="136.781232"/>
      </g>
     </g>
     <g id="text_10">
      <!-- 0 -->
      <g transform="translate(40.6375 140.580451)scale(0.1 -0.1)">
       <use xlink:href="#DejaVuSans-48"/>
      </g>
     </g>
    </g>
    <g id="ytick_4">
     <g id="line2d_19">
      <path clip-path="url(#p8a844a800e)" d="M 54 92.887693 
L 388.8 92.887693 
" style="fill:none;stroke:#b0b0b0;stroke-linecap:square;stroke-width:0.8;"/>
     </g>
     <g id="line2d_20">
      <g>
       <use style="stroke:#000000;stroke-width:0.8;" x="54" xlink:href="#m2e4c1bbb70" y="92.887693"/>
      </g>
     </g>
     <g id="text_11">
      <!-- 10 -->
      <g transform="translate(34.275 96.686912)scale(0.1 -0.1)">
       <use xlink:href="#DejaVuSans-49"/>
       <use x="63.623047" xlink:href="#DejaVuSans-48"/>
      </g>
     </g>
    </g>
    <g id="ytick_5">
     <g id="line2d_21">
      <path clip-path="url(#p8a844a800e)" d="M 54 48.994154 
L 388.8 48.994154 
" style="fill:none;stroke:#b0b0b0;stroke-linecap:square;stroke-width:0.8;"/>
     </g>
     <g id="line2d_22">
      <g>
       <use style="stroke:#000000;stroke-width:0.8;" x="54" xlink:href="#m2e4c1bbb70" y="48.994154"/>
      </g>
     </g>
     <g id="text_12">
      <!-- 20 -->
      <g transform="translate(34.275 52.793373)scale(0.1 -0.1)">
       <use xlink:href="#DejaVuSans-50"/>
       <use x="63.623047" xlink:href="#DejaVuSans-48"/>
      </g>
     </g>
    </g>
    <g id="text_13">
     <!-- mouvement latéral d'un essieu [mm] -->
     <g transform="translate(19.815625 236.293281)rotate(-90)scale(0.1 -0.1)">
      <defs>
       <path d="M 30.609375 48.390625 
Q 23.390625 48.390625 19.1875 42.75 
Q 14.984375 37.109375 14.984375 27.296875 
Q 14.984375 17.484375 19.15625 11.84375 
Q 23.34375 6.203125 30.609375 6.203125 
Q 37.796875 6.203125 41.984375 11.859375 
Q 46.1875 17.53125 46.1875 27.296875 
Q 46.1875 37.015625 41.984375 42.703125 
Q 37.796875 48.390625 30.609375 48.390625 
z
M 30.609375 56 
Q 42.328125 56 49.015625 48.375 
Q 55.71875 40.765625 55.71875 27.296875 
Q 55.71875 13.875 49.015625 6.21875 
Q 42.328125 -1.421875 30.609375 -1.421875 
Q 18.84375 -1.421875 12.171875 6.21875 
Q 5.515625 13.875 5.515625 27.296875 
Q 5.515625 40.765625 12.171875 48.375 
Q 18.84375 56 30.609375 56 
z
" id="DejaVuSans-111"/>
       <path d="M 8.5 21.578125 
L 8.5 54.6875 
L 17.484375 54.6875 
L 17.484375 21.921875 
Q 17.484375 14.15625 20.5 10.265625 
Q 23.53125 6.390625 29.59375 6.390625 
Q 36.859375 6.390625 41.078125 11.03125 
Q 45.3125 15.671875 45.3125 23.6875 
L 45.3125 54.6875 
L 54.296875 54.6875 
L 54.296875 0 
L 45.3125 0 
L 45.3125 8.40625 
Q 42.046875 3.421875 37.71875 1 
Q 33.40625 -1.421875 27.6875 -1.421875 
Q 18.265625 -1.421875 13.375 4.4375 
Q 8.5 10.296875 8.5 21.578125 
z
M 31.109375 56 
z
" id="DejaVuSans-117"/>
       <path d="M 2.984375 54.6875 
L 12.5 54.6875 
L 29.59375 8.796875 
L 46.6875 54.6875 
L 56.203125 54.6875 
L 35.6875 0 
L 23.484375 0 
z
" id="DejaVuSans-118"/>
       <path d="M 54.890625 33.015625 
L 54.890625 0 
L 45.90625 0 
L 45.90625 32.71875 
Q 45.90625 40.484375 42.875 44.328125 
Q 39.84375 48.1875 33.796875 48.1875 
Q 26.515625 48.1875 22.3125 43.546875 
Q 18.109375 38.921875 18.109375 30.90625 
L 18.109375 0 
L 9.078125 0 
L 9.078125 54.6875 
L 18.109375 54.6875 
L 18.109375 46.1875 
Q 21.34375 51.125 25.703125 53.5625 
Q 30.078125 56 35.796875 56 
Q 45.21875 56 50.046875 50.171875 
Q 54.890625 44.34375 54.890625 33.015625 
z
" id="DejaVuSans-110"/>
       <path d="M 9.421875 75.984375 
L 18.40625 75.984375 
L 18.40625 0 
L 9.421875 0 
z
" id="DejaVuSans-108"/>
       <path d="M 34.28125 27.484375 
Q 23.390625 27.484375 19.1875 25 
Q 14.984375 22.515625 14.984375 16.5 
Q 14.984375 11.71875 18.140625 8.90625 
Q 21.296875 6.109375 26.703125 6.109375 
Q 34.1875 6.109375 38.703125 11.40625 
Q 43.21875 16.703125 43.21875 25.484375 
L 43.21875 27.484375 
z
M 52.203125 31.203125 
L 52.203125 0 
L 43.21875 0 
L 43.21875 8.296875 
Q 40.140625 3.328125 35.546875 0.953125 
Q 30.953125 -1.421875 24.3125 -1.421875 
Q 15.921875 -1.421875 10.953125 3.296875 
Q 6 8.015625 6 15.921875 
Q 6 25.140625 12.171875 29.828125 
Q 18.359375 34.515625 30.609375 34.515625 
L 43.21875 34.515625 
L 43.21875 35.40625 
Q 43.21875 41.609375 39.140625 45 
Q 35.0625 48.390625 27.6875 48.390625 
Q 23 48.390625 18.546875 47.265625 
Q 14.109375 46.140625 10.015625 43.890625 
L 10.015625 52.203125 
Q 14.9375 54.109375 19.578125 55.046875 
Q 24.21875 56 28.609375 56 
Q 40.484375 56 46.34375 49.84375 
Q 52.203125 43.703125 52.203125 31.203125 
z
" id="DejaVuSans-97"/>
       <path d="M 56.203125 29.59375 
L 56.203125 25.203125 
L 14.890625 25.203125 
Q 15.484375 15.921875 20.484375 11.0625 
Q 25.484375 6.203125 34.421875 6.203125 
Q 39.59375 6.203125 44.453125 7.46875 
Q 49.3125 8.734375 54.109375 11.28125 
L 54.109375 2.78125 
Q 49.265625 0.734375 44.1875 -0.34375 
Q 39.109375 -1.421875 33.890625 -1.421875 
Q 20.796875 -1.421875 13.15625 6.1875 
Q 5.515625 13.8125 5.515625 26.8125 
Q 5.515625 40.234375 12.765625 48.109375 
Q 20.015625 56 32.328125 56 
Q 43.359375 56 49.78125 48.890625 
Q 56.203125 41.796875 56.203125 29.59375 
z
M 47.21875 32.234375 
Q 47.125 39.59375 43.09375 43.984375 
Q 39.0625 48.390625 32.421875 48.390625 
Q 24.90625 48.390625 20.390625 44.140625 
Q 15.875 39.890625 15.1875 32.171875 
z
M 38.578125 79.984375 
L 48.296875 79.984375 
L 32.375 61.625 
L 24.90625 61.625 
z
" id="DejaVuSans-233"/>
       <path d="M 41.109375 46.296875 
Q 39.59375 47.171875 37.8125 47.578125 
Q 36.03125 48 33.890625 48 
Q 26.265625 48 22.1875 43.046875 
Q 18.109375 38.09375 18.109375 28.8125 
L 18.109375 0 
L 9.078125 0 
L 9.078125 54.6875 
L 18.109375 54.6875 
L 18.109375 46.1875 
Q 20.953125 51.171875 25.484375 53.578125 
Q 30.03125 56 36.53125 56 
Q 37.453125 56 38.578125 55.875 
Q 39.703125 55.765625 41.0625 55.515625 
z
" id="DejaVuSans-114"/>
       <path d="M 45.40625 46.390625 
L 45.40625 75.984375 
L 54.390625 75.984375 
L 54.390625 0 
L 45.40625 0 
L 45.40625 8.203125 
Q 42.578125 3.328125 38.25 0.953125 
Q 33.9375 -1.421875 27.875 -1.421875 
Q 17.96875 -1.421875 11.734375 6.484375 
Q 5.515625 14.40625 5.515625 27.296875 
Q 5.515625 40.1875 11.734375 48.09375 
Q 17.96875 56 27.875 56 
Q 33.9375 56 38.25 53.625 
Q 42.578125 51.265625 45.40625 46.390625 
z
M 14.796875 27.296875 
Q 14.796875 17.390625 18.875 11.75 
Q 22.953125 6.109375 30.078125 6.109375 
Q 37.203125 6.109375 41.296875 11.75 
Q 45.40625 17.390625 45.40625 27.296875 
Q 45.40625 37.203125 41.296875 42.84375 
Q 37.203125 48.484375 30.078125 48.484375 
Q 22.953125 48.484375 18.875 42.84375 
Q 14.796875 37.203125 14.796875 27.296875 
z
" id="DejaVuSans-100"/>
       <path d="M 17.921875 72.90625 
L 17.921875 45.796875 
L 9.625 45.796875 
L 9.625 72.90625 
z
" id="DejaVuSans-39"/>
       <path d="M 9.421875 54.6875 
L 18.40625 54.6875 
L 18.40625 0 
L 9.421875 0 
z
M 9.421875 75.984375 
L 18.40625 75.984375 
L 18.40625 64.59375 
L 9.421875 64.59375 
z
" id="DejaVuSans-105"/>
      </defs>
      <use xlink:href="#DejaVuSans-109"/>
      <use x="97.412109" xlink:href="#DejaVuSans-111"/>
      <use x="158.59375" xlink:href="#DejaVuSans-117"/>
      <use x="221.972656" xlink:href="#DejaVuSans-118"/>
      <use x="281.152344" xlink:href="#DejaVuSans-101"/>
      <use x="342.675781" xlink:href="#DejaVuSans-109"/>
      <use x="440.087891" xlink:href="#DejaVuSans-101"/>
      <use x="501.611328" xlink:href="#DejaVuSans-110"/>
      <use x="564.990234" xlink:href="#DejaVuSans-116"/>
      <use x="604.199219" xlink:href="#DejaVuSans-32"/>
      <use x="635.986328" xlink:href="#DejaVuSans-108"/>
      <use x="663.769531" xlink:href="#DejaVuSans-97"/>
      <use x="725.048828" xlink:href="#DejaVuSans-116"/>
      <use x="764.257812" xlink:href="#DejaVuSans-233"/>
      <use x="825.78125" xlink:href="#DejaVuSans-114"/>
      <use x="866.894531" xlink:href="#DejaVuSans-97"/>
      <use x="928.173828" xlink:href="#DejaVuSans-108"/>
      <use x="955.957031" xlink:href="#DejaVuSans-32"/>
      <use x="987.744141" xlink:href="#DejaVuSans-100"/>
      <use x="1051.220703" xlink:href="#DejaVuSans-39"/>
      <use x="1078.710938" xlink:href="#DejaVuSans-117"/>
      <use x="1142.089844" xlink:href="#DejaVuSans-110"/>
      <use x="1205.46875" xlink:href="#DejaVuSans-32"/>
      <use x="1237.255859" xlink:href="#DejaVuSans-101"/>
      <use x="1298.779297" xlink:href="#DejaVuSans-115"/>
      <use x="1350.878906" xlink:href="#DejaVuSans-115"/>
      <use x="1402.978516" xlink:href="#DejaVuSans-105"/>
      <use x="1430.761719" xlink:href="#DejaVuSans-101"/>
      <use x="1492.285156" xlink:href="#DejaVuSans-117"/>
      <use x="1555.664062" xlink:href="#DejaVuSans-32"/>
      <use x="1587.451172" xlink:href="#DejaVuSans-91"/>
      <use x="1626.464844" xlink:href="#DejaVuSans-109"/>
      <use x="1723.876953" xlink:href="#DejaVuSans-109"/>
      <use x="1821.289062" xlink:href="#DejaVuSans-93"/>
     </g>
    </g>
   </g>
   <g id="line2d_23">
    <path clip-path="url(#p8a844a800e)" d="M 54 136.781232 
L 87.74784 136.699153 
L 87.94872 136.291764 
L 88.21656 135.064845 
L 88.55136 132.270836 
L 89.05356 125.770837 
L 91.09584 96.625076 
L 91.43064 94.952597 
L 91.63152 94.672264 
L 91.76544 94.799658 
L 91.96632 95.470969 
L 92.23416 97.273742 
L 92.60244 101.471386 
L 93.07116 109.744573 
L 93.64032 124.125775 
L 94.41036 149.834089 
L 96.62004 227.513907 
L 97.12224 237.345556 
L 97.49052 241.110285 
L 97.75836 242.083958 
L 97.89228 242.069799 
L 98.05968 241.623251 
L 98.29404 240.244005 
L 98.62884 236.761104 
L 99.0306 230.047228 
L 99.5328 217.376312 
L 100.13544 196.002071 
L 101.0394 154.847492 
L 102.67992 79.405111 
L 103.34952 58.419649 
L 103.85172 48.529612 
L 104.22 44.976092 
L 104.42088 44.443636 
L 104.52132 44.55197 
L 104.68872 45.277584 
L 104.95656 47.788047 
L 105.35832 54.260316 
L 105.92748 67.648389 
L 106.76448 93.355879 
L 108.47196 147.283615 
L 109.04112 158.167355 
L 109.44288 162.24095 
L 109.71072 163.167158 
L 109.81116 163.143733 
L 109.94508 162.802979 
L 110.17944 161.380706 
L 110.51424 157.649162 
L 110.98296 149.565579 
L 111.71952 132.346819 
L 113.12568 99.071742 
L 113.66136 91.49965 
L 114.02964 88.980249 
L 114.23052 88.595853 
L 114.33096 88.666861 
L 114.49836 89.170396 
L 114.7662 90.952757 
L 115.13448 95.279075 
L 115.6032 103.777351 
L 116.17236 118.418812 
L 116.9424 144.486923 
L 118.9512 215.175208 
L 119.48688 226.055752 
L 119.85516 229.985417 
L 120.123 230.984756 
L 120.25692 230.941486 
L 120.42432 230.422111 
L 120.69216 228.603404 
L 121.06044 224.233516 
L 121.49568 216.180077 
L 122.03136 201.631372 
L 122.70096 176.64791 
L 124.04016 115.545346 
L 125.01108 76.679763 
L 125.6472 59.256345 
L 126.08244 52.238148 
L 126.38376 50.004023 
L 126.55116 49.722089 
L 126.6516 49.879767 
L 126.819 50.674751 
L 127.08684 53.258978 
L 127.4886 59.787154 
L 128.05776 73.309683 
L 128.8278 97.472803 
L 130.80312 162.420695 
L 131.3388 172.08668 
L 131.70708 175.357727 
L 131.94144 175.925571 
L 132.04188 175.809152 
L 132.20928 175.145135 
L 132.47712 172.908913 
L 132.8454 167.682532 
L 133.38108 156.440217 
L 134.25156 132.502712 
L 135.49032 99.085969 
L 136.05948 89.325604 
L 136.42776 86.008642 
L 136.66212 85.23319 
L 136.79604 85.2587 
L 136.96344 85.761097 
L 137.1978 87.313328 
L 137.5326 91.146697 
L 138.00132 99.456359 
L 138.57048 113.857641 
L 139.34052 139.668118 
L 141.31584 208.805632 
L 141.85152 219.636721 
L 142.2198 223.538566 
L 142.48764 224.484378 
L 142.58808 224.44969 
L 142.75548 223.953984 
L 143.02332 222.114324 
L 143.3916 217.677171 
L 143.86032 208.912007 
L 144.396 194.386869 
L 145.09908 168.430575 
L 147.5766 69.797752 
L 148.0788 59.503088 
L 148.44708 55.614235 
L 148.68144 54.853825 
L 148.78188 54.936212 
L 148.94928 55.603498 
L 149.21712 57.971514 
L 149.5854 63.52254 
L 150.12108 75.426416 
L 150.82416 96.485041 
L 153.30168 176.416494 
L 153.73692 182.399233 
L 154.03824 184.135142 
L 154.17216 184.26097 
L 154.20564 184.230796 
L 154.33956 183.866794 
L 154.57392 182.318404 
L 154.90872 178.231808 
L 155.37744 169.326611 
L 156.04704 151.784163 
L 158.2902 88.581856 
L 158.72544 82.903038 
L 159.02676 81.162429 
L 159.19416 80.988449 
L 159.32808 81.250469 
L 159.52896 82.290678 
L 159.83028 85.22262 
L 160.26552 92.086666 
L 160.8012 104.3982 
L 161.50428 126.349936 
L 163.9818 210.01224 
L 164.45052 217.120063 
L 164.75184 219.105471 
L 164.91924 219.337038 
L 165.05316 219.0979 
L 165.25404 218.08054 
L 165.55536 215.211266 
L 165.9906 208.503292 
L 166.4928 197.080718 
L 167.09544 178.07007 
L 167.9994 141.400926 
L 169.40556 85.211619 
L 170.04168 68.007542 
L 170.47692 61.051831 
L 170.77824 58.834471 
L 170.94564 58.547045 
L 171.04608 58.694159 
L 171.21348 59.455714 
L 171.48132 61.934534 
L 171.88308 68.191796 
L 172.41876 80.399103 
L 173.12184 101.888172 
L 175.5324 181.272941 
L 175.96764 187.747896 
L 176.26896 189.806684 
L 176.43636 190.069172 
L 176.5368 189.927223 
L 176.7042 189.202653 
L 176.97204 186.830904 
L 177.34032 181.361896 
L 177.876 169.628211 
L 178.64604 147.064611 
L 180.48744 90.669445 
L 180.98964 81.924772 
L 181.35792 78.683254 
L 181.59228 78.10162 
L 181.69272 78.20217 
L 181.86012 78.823002 
L 182.12796 80.938213 
L 182.49624 85.899063 
L 182.99844 96.045018 
L 183.63456 113.96748 
L 184.572 147.919323 
L 185.87772 194.159321 
L 186.48036 208.402499 
L 186.9156 214.114197 
L 187.18344 215.508442 
L 187.31736 215.604262 
L 187.45128 215.316527 
L 187.65216 214.208743 
L 187.95348 211.167631 
L 188.38872 204.183978 
L 188.9244 191.611675 
L 189.56052 171.032526 
L 190.63188 127.491577 
L 191.73672 85.657549 
L 192.33936 69.986418 
L 192.7746 63.34814 
L 193.07592 61.340437 
L 193.20984 61.142899 
L 193.24332 61.159559 
L 193.37724 61.485407 
L 193.57812 62.724786 
L 193.87944 66.1339 
L 194.31468 73.864511 
L 194.91732 89.066068 
L 195.68736 114.707723 
L 197.49528 177.484169 
L 198.03096 188.571786 
L 198.43272 192.962342 
L 198.66708 193.847429 
L 198.76752 193.847026 
L 198.90144 193.498264 
L 199.1358 191.962458 
L 199.4706 187.876574 
L 199.93932 178.948914 
L 200.57544 162.100415 
L 201.57984 128.573769 
L 202.68468 93.701623 
L 203.25384 81.788099 
L 203.6556 77.157301 
L 203.92344 75.985161 
L 204.02388 75.942823 
L 204.05736 75.976143 
L 204.19128 76.342431 
L 204.42564 77.848524 
L 204.76044 81.758693 
L 205.22916 90.277462 
L 205.8318 105.861423 
L 206.63532 133.37491 
L 208.37628 194.921677 
L 208.94544 207.213229 
L 209.3472 211.80646 
L 209.61504 212.83633 
L 209.71548 212.809458 
L 209.8494 212.437584 
L 210.08376 210.917203 
L 210.41856 207.020892 
L 210.88728 198.57931 
L 211.45644 183.920151 
L 212.15952 159.552569 
L 214.3692 77.824418 
L 214.8714 67.785116 
L 215.23968 63.984993 
L 215.47404 63.229586 
L 215.57448 63.299163 
L 215.74188 63.923232 
L 216.00972 66.166685 
L 216.378 71.466 
L 216.8802 82.132224 
L 217.5498 101.565169 
L 218.58768 139.579364 
L 219.65904 176.272522 
L 220.26168 190.04993 
L 220.66344 195.155123 
L 220.93128 196.55004 
L 221.0652 196.637579 
L 221.19912 196.325625 
L 221.4 195.13333 
L 221.70132 191.823446 
L 222.13656 184.227355 
L 222.7392 169.238656 
L 223.5762 142.058186 
L 225.11628 91.285893 
L 225.68544 79.539521 
L 226.0872 75.138174 
L 226.35504 74.154587 
L 226.45548 74.187551 
L 226.5894 74.563543 
L 226.82376 76.09643 
L 227.15856 80.058326 
L 227.62728 88.653167 
L 228.22992 104.311468 
L 229.03344 131.886187 
L 230.7744 193.269077 
L 231.34356 205.396135 
L 231.74532 209.861279 
L 231.97968 210.775414 
L 232.08012 210.789491 
L 232.21404 210.467439 
L 232.4484 209.01624 
L 232.7832 205.176096 
L 233.25192 196.775097 
L 233.82108 182.227855 
L 234.55764 156.897 
L 236.66688 79.832051 
L 237.20256 69.112153 
L 237.57084 65.404535 
L 237.8052 64.69407 
L 237.90564 64.778888 
L 238.07304 65.422654 
L 238.34088 67.6835 
L 238.70916 72.985365 
L 239.21136 83.640145 
L 239.88096 103.087981 
L 240.91884 141.186353 
L 242.02368 178.976654 
L 242.59284 191.935212 
L 242.9946 197.125073 
L 243.26244 198.574159 
L 243.39636 198.687756 
L 243.53028 198.401289 
L 243.73116 197.246682 
L 244.03248 193.994132 
L 244.46772 186.484066 
L 245.07036 171.577953 
L 245.87388 145.423929 
L 247.54788 89.376984 
L 248.11704 77.848685 
L 248.48532 73.903111 
L 248.75316 72.911177 
L 248.8536 72.945649 
L 248.98752 73.32731 
L 249.22188 74.878983 
L 249.55668 78.882128 
L 250.0254 87.546377 
L 250.62804 103.284007 
L 251.43156 130.92686 
L 253.13904 191.241646 
L 253.7082 203.555277 
L 254.10996 208.173468 
L 254.3778 209.218245 
L 254.47824 209.193598 
L 254.61216 208.819321 
L 254.84652 207.274021 
L 255.18132 203.291446 
L 255.65004 194.68781 
L 256.25268 178.935123 
L 257.02272 152.007075 
L 258.8976 83.489199 
L 259.46676 71.207287 
L 259.86852 66.724981 
L 260.10288 65.837561 
L 260.20332 65.845978 
L 260.33724 66.210784 
L 260.5716 67.778058 
L 260.9064 71.879462 
L 261.37512 80.744444 
L 261.97776 96.669733 
L 262.78128 124.364742 
L 264.4218 181.980554 
L 264.99096 194.329524 
L 265.39272 199.005651 
L 265.66056 200.097073 
L 265.761 200.087122 
L 265.89492 199.72608 
L 266.12928 198.175172 
L 266.46408 194.096964 
L 266.9328 185.23864 
L 267.56892 168.364822 
L 268.47288 137.313816 
L 269.84556 90.792508 
L 270.41472 78.281823 
L 270.81648 73.358282 
L 271.08432 72.057373 
L 271.18476 71.981004 
L 271.21824 72.004683 
L 271.35216 72.340618 
L 271.58652 73.822458 
L 271.92132 77.745997 
L 272.39004 86.321207 
L 272.99268 101.942759 
L 273.7962 129.459749 
L 275.50368 189.819131 
L 276.07284 202.219678 
L 276.4746 206.914399 
L 276.74244 208.01225 
L 276.84288 208.00663 
L 276.9768 207.656061 
L 277.21116 206.145527 
L 277.54596 202.194872 
L 278.01468 193.617492 
L 278.61732 177.938434 
L 279.38736 151.234212 
L 281.26224 83.613676 
L 281.79792 72.187416 
L 282.19968 67.640008 
L 282.43404 66.703449 
L 282.53448 66.688775 
L 282.6684 67.02127 
L 282.86928 68.244332 
L 283.1706 71.57841 
L 283.60584 79.136721 
L 284.175 93.15225 
L 284.91156 117.230451 
L 286.95384 187.63488 
L 287.45604 197.111953 
L 287.82432 200.620554 
L 288.05868 201.250648 
L 288.15912 201.142298 
L 288.32652 200.472343 
L 288.59436 198.195323 
L 288.96264 192.895325 
L 289.49832 181.420569 
L 290.16792 161.816124 
L 291.3732 118.160757 
L 292.31064 88.180343 
L 292.8798 76.381604 
L 293.28156 72.075169 
L 293.51592 71.22615 
L 293.61636 71.236271 
L 293.75028 71.589991 
L 293.98464 73.104465 
L 294.31944 77.074911 
L 294.78816 85.710703 
L 295.3908 101.396648 
L 296.19432 128.965329 
L 297.9018 189.202869 
L 298.47096 201.497117 
L 298.87272 206.11086 
L 299.14056 207.155957 
L 299.241 207.130967 
L 299.37492 206.754775 
L 299.60928 205.199147 
L 299.94408 201.181229 
L 300.4128 192.507158 
L 301.01544 176.731713 
L 301.78548 150.042028 
L 303.5934 85.023257 
L 304.16256 72.75919 
L 304.56432 68.233548 
L 304.79868 67.302291 
L 304.89912 67.288197 
L 305.03304 67.619959 
L 305.23392 68.839083 
L 305.53524 72.162778 
L 305.97048 79.702996 
L 306.53964 93.70275 
L 307.2762 117.782589 
L 309.31848 188.311862 
L 309.82068 197.849564 
L 310.18896 201.404701 
L 310.42332 202.063784 
L 310.52376 201.967601 
L 310.69116 201.317621 
L 310.959 199.072159 
L 311.32728 193.815611 
L 311.82948 183.229053 
L 312.49908 163.912133 
L 313.57044 125.091977 
L 314.60832 90.277233 
L 315.21096 76.859764 
L 315.61272 71.997929 
L 315.88056 70.758504 
L 315.981 70.708463 
L 316.01448 70.741243 
L 316.1484 71.114944 
L 316.38276 72.666512 
L 316.71756 76.691965 
L 317.18628 85.403253 
L 317.78892 101.175626 
L 318.59244 128.817244 
L 320.26644 187.990302 
L 320.8356 200.491104 
L 321.23736 205.274615 
L 321.5052 206.434453 
L 321.60564 206.451011 
L 321.63912 206.406814 
L 321.80652 205.822321 
L 322.07436 203.693193 
L 322.44264 198.629646 
L 322.94484 188.323478 
L 323.58096 170.234298 
L 324.48492 137.14754 
L 325.82412 89.115987 
L 326.42676 74.871422 
L 326.862 69.201634 
L 327.12984 67.851819 
L 327.23028 67.769486 
L 327.26376 67.792645 
L 327.39768 68.133582 
L 327.63204 69.648871 
L 327.96684 73.660409 
L 328.43556 82.388908 
L 329.0382 98.160218 
L 329.84172 125.742032 
L 331.51572 184.604641 
L 332.08488 196.907893 
L 332.48664 201.543432 
L 332.75448 202.606678 
L 332.85492 202.587087 
L 332.98884 202.214965 
L 333.2232 200.652388 
L 333.558 196.581684 
L 334.02672 187.775105 
L 334.62936 171.942301 
L 335.46636 143.264747 
L 337.03992 88.666082 
L 337.60908 76.272417 
L 338.01084 71.516111 
L 338.27868 70.353626 
L 338.37912 70.33276 
L 338.4126 70.37523 
L 338.58 70.949718 
L 338.81436 72.722349 
L 339.18264 77.562502 
L 339.68484 87.618755 
L 340.32096 105.349361 
L 341.22492 137.807394 
L 342.56412 185.0844 
L 343.16676 199.08874 
L 343.56852 204.343561 
L 343.86984 205.901015 
L 343.97028 205.96301 
L 344.00376 205.933786 
L 344.13768 205.572507 
L 344.37204 204.038191 
L 344.70684 200.0369 
L 345.17556 191.369669 
L 345.7782 175.639076 
L 346.58172 147.880054 
L 348.32268 85.923809 
L 348.89184 73.661498 
L 349.2936 69.101744 
L 349.56144 68.104037 
L 349.66188 68.149724 
L 349.7958 68.556686 
L 350.03016 70.176771 
L 350.36496 74.31254 
L 350.83368 83.175954 
L 351.43632 99.095307 
L 352.23984 126.813522 
L 353.88036 184.601874 
L 354.44952 197.102048 
L 354.85128 201.904216 
L 355.11912 203.083758 
L 355.21956 203.107682 
L 355.25304 203.065777 
L 355.42044 202.490444 
L 355.6548 200.705585 
L 356.02308 195.821069 
L 356.52528 185.68258 
L 357.1614 167.916397 
L 358.09884 134.418423 
L 359.37108 90.297533 
L 359.97372 76.560677 
L 360.37548 71.470093 
L 360.64332 70.080551 
L 360.77724 69.991419 
L 360.91116 70.296412 
L 361.11204 71.463171 
L 361.41336 74.687912 
L 361.8486 82.065915 
L 362.41776 95.871541 
L 363.15432 119.793076 
L 365.26356 192.499741 
L 365.76576 201.760507 
L 366.13404 205.085346 
L 366.33492 205.600655 
L 366.43536 205.519083 
L 366.60276 204.896785 
L 366.8706 202.709422 
L 367.23888 197.568044 
L 367.74108 187.164092 
L 368.3772 169.004165 
L 369.31464 134.738607 
L 370.58688 89.614207 
L 371.18952 75.434843 
L 371.62476 69.784408 
L 371.8926 68.434833 
L 371.99304 68.350319 
L 372.02652 68.372487 
L 372.16044 68.708203 
L 372.3948 70.210118 
L 372.7296 74.19618 
L 373.19832 82.885095 
L 373.80096 98.614641 
L 374.60448 126.168082 
L 376.27848 185.14912 
L 376.84764 197.560967 
L 377.2494 202.287168 
L 377.51724 203.41335 
L 377.61768 203.417395 
L 377.7516 203.076637 
L 377.98596 201.568328 
L 378.32076 197.573673 
L 378.78948 188.868541 
L 379.39212 173.134474 
L 380.19564 145.68998 
L 381.83616 88.25913 
L 382.40532 75.800743 
L 382.80708 71.01161 
L 383.07492 69.833708 
L 383.17536 69.80855 
L 383.20884 69.849778 
L 383.37624 70.41947 
L 383.6106 72.189203 
L 383.97888 77.032123 
L 384.48108 87.098669 
L 385.1172 104.836778 
L 386.02116 137.288756 
L 387.36036 184.507288 
L 387.963 198.462811 
L 388.36476 203.682202 
L 388.6326 205.145358 
L 388.76652 205.266867 
L 388.8 205.234754 
L 388.83348 205.177981 
L 388.83348 205.177981 
" style="fill:none;stroke:#1f77b4;stroke-linecap:square;stroke-width:1.5;"/>
   </g>
   <g id="patch_3">
    <path d="M 54 252 
L 54 34.56 
" style="fill:none;stroke:#000000;stroke-linecap:square;stroke-linejoin:miter;stroke-width:0.8;"/>
   </g>
   <g id="patch_4">
    <path d="M 388.8 252 
L 388.8 34.56 
" style="fill:none;stroke:#000000;stroke-linecap:square;stroke-linejoin:miter;stroke-width:0.8;"/>
   </g>
   <g id="patch_5">
    <path d="M 54 252 
L 388.8 252 
" style="fill:none;stroke:#000000;stroke-linecap:square;stroke-linejoin:miter;stroke-width:0.8;"/>
   </g>
   <g id="patch_6">
    <path d="M 54 34.56 
L 388.8 34.56 
" style="fill:none;stroke:#000000;stroke-linecap:square;stroke-linejoin:miter;stroke-width:0.8;"/>
   </g>
   <g id="text_14">
    <!-- Voie rectiligne avec défaut de dressage -->
    <g transform="translate(102.79125 28.56)scale(0.12 -0.12)">
     <defs>
      <path d="M 28.609375 0 
L 0.78125 72.90625 
L 11.078125 72.90625 
L 34.1875 11.53125 
L 57.328125 72.90625 
L 67.578125 72.90625 
L 39.796875 0 
z
" id="DejaVuSans-86"/>
      <path d="M 48.78125 52.59375 
L 48.78125 44.1875 
Q 44.96875 46.296875 41.140625 47.34375 
Q 37.3125 48.390625 33.40625 48.390625 
Q 24.65625 48.390625 19.8125 42.84375 
Q 14.984375 37.3125 14.984375 27.296875 
Q 14.984375 17.28125 19.8125 11.734375 
Q 24.65625 6.203125 33.40625 6.203125 
Q 37.3125 6.203125 41.140625 7.25 
Q 44.96875 8.296875 48.78125 10.40625 
L 48.78125 2.09375 
Q 45.015625 0.34375 40.984375 -0.53125 
Q 36.96875 -1.421875 32.421875 -1.421875 
Q 20.0625 -1.421875 12.78125 6.34375 
Q 5.515625 14.109375 5.515625 27.296875 
Q 5.515625 40.671875 12.859375 48.328125 
Q 20.21875 56 33.015625 56 
Q 37.15625 56 41.109375 55.140625 
Q 45.0625 54.296875 48.78125 52.59375 
z
" id="DejaVuSans-99"/>
      <path d="M 45.40625 27.984375 
Q 45.40625 37.75 41.375 43.109375 
Q 37.359375 48.484375 30.078125 48.484375 
Q 22.859375 48.484375 18.828125 43.109375 
Q 14.796875 37.75 14.796875 27.984375 
Q 14.796875 18.265625 18.828125 12.890625 
Q 22.859375 7.515625 30.078125 7.515625 
Q 37.359375 7.515625 41.375 12.890625 
Q 45.40625 18.265625 45.40625 27.984375 
z
M 54.390625 6.78125 
Q 54.390625 -7.171875 48.1875 -13.984375 
Q 42 -20.796875 29.203125 -20.796875 
Q 24.46875 -20.796875 20.265625 -20.09375 
Q 16.0625 -19.390625 12.109375 -17.921875 
L 12.109375 -9.1875 
Q 16.0625 -11.328125 19.921875 -12.34375 
Q 23.78125 -13.375 27.78125 -13.375 
Q 36.625 -13.375 41.015625 -8.765625 
Q 45.40625 -4.15625 45.40625 5.171875 
L 45.40625 9.625 
Q 42.625 4.78125 38.28125 2.390625 
Q 33.9375 0 27.875 0 
Q 17.828125 0 11.671875 7.65625 
Q 5.515625 15.328125 5.515625 27.984375 
Q 5.515625 40.671875 11.671875 48.328125 
Q 17.828125 56 27.875 56 
Q 33.9375 56 38.28125 53.609375 
Q 42.625 51.21875 45.40625 46.390625 
L 45.40625 54.6875 
L 54.390625 54.6875 
z
" id="DejaVuSans-103"/>
      <path d="M 37.109375 75.984375 
L 37.109375 68.5 
L 28.515625 68.5 
Q 23.6875 68.5 21.796875 66.546875 
Q 19.921875 64.59375 19.921875 59.515625 
L 19.921875 54.6875 
L 34.71875 54.6875 
L 34.71875 47.703125 
L 19.921875 47.703125 
L 19.921875 0 
L 10.890625 0 
L 10.890625 47.703125 
L 2.296875 47.703125 
L 2.296875 54.6875 
L 10.890625 54.6875 
L 10.890625 58.5 
Q 10.890625 67.625 15.140625 71.796875 
Q 19.390625 75.984375 28.609375 75.984375 
z
" id="DejaVuSans-102"/>
     </defs>
     <use xlink:href="#DejaVuSans-86"/>
     <use x="60.658203" xlink:href="#DejaVuSans-111"/>
     <use x="121.839844" xlink:href="#DejaVuSans-105"/>
     <use x="149.623047" xlink:href="#DejaVuSans-101"/>
     <use x="211.146484" xlink:href="#DejaVuSans-32"/>
     <use x="242.933594" xlink:href="#DejaVuSans-114"/>
     <use x="281.796875" xlink:href="#DejaVuSans-101"/>
     <use x="343.320312" xlink:href="#DejaVuSans-99"/>
     <use x="398.300781" xlink:href="#DejaVuSans-116"/>
     <use x="437.509766" xlink:href="#DejaVuSans-105"/>
     <use x="465.292969" xlink:href="#DejaVuSans-108"/>
     <use x="493.076172" xlink:href="#DejaVuSans-105"/>
     <use x="520.859375" xlink:href="#DejaVuSans-103"/>
     <use x="584.335938" xlink:href="#DejaVuSans-110"/>
     <use x="647.714844" xlink:href="#DejaVuSans-101"/>
     <use x="709.238281" xlink:href="#DejaVuSans-32"/>
     <use x="741.025391" xlink:href="#DejaVuSans-97"/>
     <use x="802.304688" xlink:href="#DejaVuSans-118"/>
     <use x="861.484375" xlink:href="#DejaVuSans-101"/>
     <use x="923.007812" xlink:href="#DejaVuSans-99"/>
     <use x="977.988281" xlink:href="#DejaVuSans-32"/>
     <use x="1009.775391" xlink:href="#DejaVuSans-100"/>
     <use x="1073.251953" xlink:href="#DejaVuSans-233"/>
     <use x="1134.775391" xlink:href="#DejaVuSans-102"/>
     <use x="1169.980469" xlink:href="#DejaVuSans-97"/>
     <use x="1231.259766" xlink:href="#DejaVuSans-117"/>
     <use x="1294.638672" xlink:href="#DejaVuSans-116"/>
     <use x="1333.847656" xlink:href="#DejaVuSans-32"/>
     <use x="1365.634766" xlink:href="#DejaVuSans-100"/>
     <use x="1429.111328" xlink:href="#DejaVuSans-101"/>
     <use x="1490.634766" xlink:href="#DejaVuSans-32"/>
     <use x="1522.421875" xlink:href="#DejaVuSans-100"/>
     <use x="1585.898438" xlink:href="#DejaVuSans-114"/>
     <use x="1624.761719" xlink:href="#DejaVuSans-101"/>
     <use x="1686.285156" xlink:href="#DejaVuSans-115"/>
     <use x="1738.384766" xlink:href="#DejaVuSans-115"/>
     <use x="1790.484375" xlink:href="#DejaVuSans-97"/>
     <use x="1851.763672" xlink:href="#DejaVuSans-103"/>
     <use x="1915.240234" xlink:href="#DejaVuSans-101"/>
    </g>
   </g>
  </g>
 </g>
 <defs>
  <clipPath id="p8a844a800e">
   <rect height="217.44" width="334.8" x="54" y="34.56"/>
  </clipPath>
 </defs>
</svg>
